<svg width="60" height="52" viewBox="0 0 60 52" fill="none" xmlns="http://www.w3.org/2000/svg">
<path d="M57.784 22.6735C59.1261 24.6881 59.1261 27.3119 57.784 29.3265L46.781 45.8432C45.6684 47.5133 43.7944 48.5167 41.7876 48.5167H18.2124C16.2056 48.5167 14.3316 47.5133 13.219 45.8432L2.21602 29.3265C0.873943 27.3119 0.87394 24.6881 2.21602 22.6735L13.219 6.15685C14.3316 4.48667 16.2056 3.48334 18.2124 3.48334L41.7876 3.48334C43.7944 3.48334 45.6684 4.48667 46.781 6.15684L57.784 22.6735Z" fill="#FEC07E"/>
<g clip-path="url(#clip0_352_6317)">
<path fill-rule="evenodd" clip-rule="evenodd" d="M39.0682 13.0615C39.4389 13.2236 39.608 13.6555 39.446 14.0262L38.0186 17.2913C37.8566 17.662 37.4247 17.8311 37.054 17.6691C36.6833 17.507 36.5141 17.0751 36.6762 16.7044L38.1035 13.4393C38.2656 13.0686 38.6975 12.8995 39.0682 13.0615ZM31.9233 17.1816C31.8552 17.0198 31.6437 16.9806 31.5221 17.1073L25.0577 23.8408C24.9193 23.985 24.7566 24.1039 24.577 24.1919L21.7507 25.5773C21.6349 25.6341 21.5832 25.7712 21.6328 25.8904L26.0375 36.4701C26.193 36.8436 26.0163 37.2725 25.6428 37.428C25.2693 37.5835 24.8405 37.4068 24.685 37.0333L20.2802 26.4535C19.933 25.6195 20.2947 24.6593 21.1059 24.2617L23.9322 22.8763C23.9578 22.8637 23.9811 22.8468 24.0009 22.8262L30.4652 16.0926C31.3163 15.2061 32.7969 15.4805 33.2737 16.6132L38.2979 28.5483C38.7785 29.69 37.9229 30.9479 36.6844 30.9203L27.9198 30.725C27.8875 30.7243 27.8553 30.73 27.8252 30.7418L25.6287 31.6032C25.2521 31.7509 24.827 31.5653 24.6793 31.1886C24.5316 30.812 24.7172 30.3869 25.0938 30.2392L27.2903 29.3778C27.5011 29.2952 27.7261 29.2552 27.9524 29.2603L36.7171 29.4556C36.894 29.4595 37.0162 29.2798 36.9476 29.1167L31.9233 17.1816ZM46.3314 17.8065C46.5095 18.1698 46.3593 18.6087 45.9961 18.7867L40.7624 21.3522C40.3991 21.5302 39.9603 21.3801 39.7822 21.0168C39.6041 20.6536 39.7543 20.2147 40.1176 20.0366L45.3512 17.4712C45.7145 17.2931 46.1533 17.4433 46.3314 17.8065ZM39.7726 23.8907C39.9394 23.5221 40.3734 23.3585 40.742 23.5253L43.8346 24.9246C44.2032 25.0914 44.3668 25.5254 44.2 25.894C44.0332 26.2626 43.5992 26.4262 43.2306 26.2595L40.138 24.8601C39.7694 24.6933 39.6058 24.2593 39.7726 23.8907ZM16.7806 26.0029C17.6479 25.6061 18.6721 25.9959 19.0563 26.8688L23.8907 37.856C24.0537 38.2263 23.8856 38.6586 23.5153 38.8215C23.1449 38.9845 22.7127 38.8164 22.5497 38.4461L17.7152 27.4589C17.6604 27.3342 17.514 27.2785 17.3901 27.3352L15.6081 28.1505C15.4858 28.2064 15.4318 28.3508 15.4873 28.4733L17.5788 33.0869C17.6302 33.2003 17.7587 33.2568 17.8771 33.2182L18.4727 33.0235C18.8573 32.8978 19.2709 33.1077 19.3966 33.4923C19.5223 33.8768 19.3124 34.2905 18.9278 34.4161L18.3322 34.6108C17.5037 34.8815 16.6043 34.4856 16.2445 33.6918L14.1529 29.0783C13.7641 28.2206 14.1422 27.21 14.9986 26.8182L16.7806 26.0029Z" fill="#292526"/>
</g>
<defs>
<clipPath id="clip0_352_6317">
<rect width="33" height="26" fill="white" transform="translate(14 13)"/>
</clipPath>
</defs>
</svg>
