<svg width="40" height="40" viewBox="0 0 40 40" fill="none" xmlns="http://www.w3.org/2000/svg">
<rect width="40" height="40" rx="20" fill="#E93E3A"/>
<path d="M10.674 25V19.68C10.674 19.4373 10.674 19.19 10.674 18.938C10.6833 18.6767 10.688 18.4107 10.688 18.14C10.38 18.42 10.0393 18.6673 9.666 18.882C9.29267 19.0873 8.90067 19.2273 8.49 19.302L8.266 17.314C8.50867 17.2953 8.76533 17.2347 9.036 17.132C9.316 17.0293 9.59133 16.9033 9.862 16.754C10.1327 16.6047 10.3753 16.446 10.59 16.278C10.8047 16.1007 10.968 15.928 11.08 15.76H12.998V25H10.674ZM18.4113 15.648C19.1113 15.648 19.718 15.7507 20.2313 15.956C20.7446 16.1613 21.1413 16.4553 21.4213 16.838C21.7106 17.2113 21.8553 17.6593 21.8553 18.182C21.8553 18.6767 21.734 19.1013 21.4913 19.456C21.2486 19.8107 20.8893 20.0813 20.4133 20.268V20.282C20.9733 20.4687 21.4073 20.744 21.7153 21.108C22.0233 21.4627 22.1773 21.92 22.1773 22.48C22.1773 23.0213 22.0233 23.4927 21.7153 23.894C21.4166 24.286 20.9873 24.594 20.4273 24.818C19.8673 25.0327 19.1953 25.14 18.4113 25.14C17.6366 25.14 16.9693 25.0327 16.4093 24.818C15.8493 24.594 15.4153 24.286 15.1073 23.894C14.8086 23.4927 14.6593 23.0213 14.6593 22.48C14.6593 21.92 14.8133 21.4627 15.1213 21.108C15.4293 20.744 15.8633 20.4687 16.4233 20.282V20.268C15.9566 20.0907 15.5973 19.8247 15.3453 19.47C15.0933 19.106 14.9673 18.6767 14.9673 18.182C14.9673 17.6593 15.1073 17.2113 15.3873 16.838C15.6766 16.4553 16.0826 16.1613 16.6053 15.956C17.128 15.7507 17.73 15.648 18.4113 15.648ZM18.4253 17.398C18.052 17.398 17.7533 17.4913 17.5293 17.678C17.3053 17.8647 17.1933 18.126 17.1933 18.462C17.1933 18.7887 17.3053 19.05 17.5293 19.246C17.7533 19.4327 18.052 19.526 18.4253 19.526C18.7986 19.526 19.0926 19.4327 19.3073 19.246C19.5313 19.05 19.6433 18.7887 19.6433 18.462C19.6433 18.126 19.5313 17.8647 19.3073 17.678C19.0926 17.4913 18.7986 17.398 18.4253 17.398ZM18.4253 23.39C18.724 23.39 18.976 23.348 19.1813 23.264C19.396 23.1707 19.5593 23.0353 19.6713 22.858C19.7833 22.6807 19.8393 22.4753 19.8393 22.242C19.8393 21.9993 19.7833 21.794 19.6713 21.626C19.5593 21.4487 19.396 21.318 19.1813 21.234C18.9666 21.1407 18.7146 21.094 18.4253 21.094C18.136 21.094 17.8793 21.1407 17.6553 21.234C17.4406 21.318 17.2773 21.4487 17.1653 21.626C17.0533 21.794 16.9973 21.9993 16.9973 22.242C16.9973 22.4753 17.0533 22.6807 17.1653 22.858C17.2773 23.0353 17.4406 23.1707 17.6553 23.264C17.87 23.348 18.1266 23.39 18.4253 23.39ZM27.9866 16.754V24.16H26.0966V16.754H27.9866ZM30.5486 19.596V21.304H23.5206V19.596H30.5486Z" fill="white"/>
</svg>
