<svg width="274" height="90" viewBox="0 0 274 90" fill="none" xmlns="http://www.w3.org/2000/svg">
<g clip-path="url(#clip0_323_2687)">
<path d="M57.5633 78.0954C56.0997 78.3651 54.7275 78.5448 53.5383 78.7246C52.349 78.8145 51.1599 78.9943 50.0621 79.174C48.9644 79.2639 47.8667 79.3537 46.7689 79.4436C45.6712 79.5336 44.3904 79.7133 43.1098 79.8931C42.2865 79.9829 41.3717 79.9829 40.5484 80.1627C39.7252 80.2526 38.4444 80.3424 36.7979 80.612L39.0848 69.8265C39.3593 68.6581 39.5422 67.5794 39.7252 66.5009C39.9995 65.3325 40.1825 64.2539 40.3654 63.1754C40.6399 62.3664 40.8229 61.5576 41.0058 60.6588C41.2803 59.6701 41.4632 58.7713 41.6462 58.1421L39.0848 58.5915C39.3593 56.4343 39.7252 54.6368 39.9995 53.1987C40.1825 52.3897 40.3654 51.7606 40.457 51.1314C40.6399 50.5022 40.7313 49.963 40.9143 49.6035C41.0973 49.1541 41.1888 48.7946 41.3717 48.435C41.9206 48.3451 42.5609 48.1654 43.4757 47.9857C44.3904 47.716 45.3053 47.5363 46.2201 47.4463C47.2263 47.2666 47.9581 47.1767 48.7815 46.997C49.6048 46.8172 50.3366 46.7274 50.7025 46.6375C51.6172 46.4576 52.532 46.2779 53.6298 46.0982C54.7275 45.8285 55.8252 45.6488 56.923 45.5589C57.106 45.4691 57.3803 45.4691 57.9293 45.4691C58.5696 45.3791 59.1184 45.2892 59.6674 45.1993C60.0333 45.1095 60.5821 45.0196 61.0395 45.0196C61.5884 44.9297 61.9543 44.9297 62.0457 44.9297C62.0457 45.2892 62.0457 45.7387 62.0457 46.4576C62.0457 47.0868 62.1373 47.8059 61.9543 48.6148C61.8628 49.4237 61.8628 50.3225 61.6798 51.3112C61.5884 52.2999 61.3139 53.2885 61.0395 54.3671C60.7651 54.3671 60.2162 54.4571 59.1184 54.6368C58.1123 54.7267 57.106 54.9064 55.9167 55.0862C54.7275 55.2659 53.7212 55.4456 52.8065 55.6255C51.8002 55.7154 51.2514 55.8951 51.1599 55.8951L50.2451 59.9397C51.0684 59.8498 51.8002 59.6701 52.4406 59.5802C53.1724 59.4902 53.8128 59.4004 54.3616 59.3105C55.002 59.2206 55.5508 59.1308 56.1912 59.0409C56.8315 58.951 57.4719 58.7713 58.2037 58.6814C58.2037 59.1308 58.2952 60.2093 58.1123 61.5576C58.0207 62.9956 57.8378 64.4338 57.5633 66.0515C57.1974 66.1414 56.7401 66.1414 56.1912 66.3211C55.7338 66.411 55.1849 66.5909 54.6361 66.6807C54.1787 66.7706 53.6298 66.8605 53.081 66.9503C52.6235 67.0402 52.2576 67.1301 51.8917 67.22C51.4343 67.3098 50.8854 67.3997 50.1537 67.5794C49.4217 67.6694 48.7815 67.8492 48.1411 68.1188C48.0497 68.6581 48.0497 69.1074 47.8667 69.4669C47.7752 69.7366 47.6837 70.0961 47.5922 70.6355C48.4156 70.5456 49.1474 70.5456 49.7878 70.3657C50.611 70.186 51.3429 70.0961 52.0747 69.9164L57.7462 68.748C57.8378 69.0176 57.8378 69.4669 57.8378 70.0961C57.9293 70.7253 57.9293 71.3544 57.9293 72.1634C57.9293 72.9723 57.9293 73.8711 57.8378 74.8598C57.9293 75.9383 57.7462 77.0169 57.5633 78.0954Z" fill="#8F99AD"/>
<path d="M79.9754 68.2988C80.0669 69.1077 80.0669 70.2762 79.9754 71.9839C79.884 73.6917 79.701 75.3993 79.5181 77.1969C78.3288 77.4665 77.0482 77.6464 75.4015 78.0059C73.8464 78.3654 72.1998 78.6351 70.3702 78.9945C68.6321 79.2642 66.8025 79.5339 64.973 79.8035C63.1434 80.0731 61.4053 80.0731 59.7588 80.0731C59.7588 79.9832 59.8502 79.4439 60.0332 78.5452C60.2162 77.5564 60.3992 76.478 60.6735 75.1297C60.948 73.6917 61.3139 72.2535 61.5883 70.5459C61.9543 68.8381 62.2287 67.3101 62.5946 65.6025C62.9605 63.8947 63.3264 62.4567 63.6009 61.0185C63.9668 59.5805 64.2412 58.502 64.4242 57.6031C64.5156 57.1537 64.6985 56.4346 64.973 55.3562C65.2475 54.1876 65.5219 53.1091 65.7964 51.9407C66.1623 50.6824 66.4366 49.6038 66.7111 48.5253C66.9856 47.3567 67.26 46.6378 67.3515 46.2782C67.8088 46.2782 68.3577 46.1883 69.0896 46.2782C69.8214 46.2782 70.5532 46.2782 71.3765 46.3682C72.1998 46.458 73.1146 46.458 73.9379 46.6378C74.8527 46.7276 75.676 46.9074 76.3163 46.9973C76.2249 47.177 76.0419 47.7163 75.7674 48.6151C75.4931 49.5139 75.3101 50.4128 74.9441 51.4913C74.6697 52.48 74.3952 53.4687 74.1209 54.3674C73.8464 55.2662 73.6634 55.8954 73.5719 56.165C73.0231 58.4121 72.5657 60.6591 71.9254 62.9959C71.3765 65.2429 70.9191 67.5798 70.5532 69.8268C71.285 69.7369 72.1083 69.6471 72.8401 69.5572C73.6634 69.4672 74.4868 69.2875 75.2186 69.1077C75.31 69.0179 75.5845 69.0179 76.0419 68.928C76.4992 68.8381 77.0482 68.8381 77.597 68.6584C78.2373 68.5685 78.6032 68.4785 79.1522 68.3887C79.5181 68.3887 79.7924 68.2988 79.9754 68.2988Z" fill="#8F99AD"/>
<path d="M101.93 68.2988C102.021 69.1077 102.021 70.2762 101.93 71.9839C101.838 73.6917 101.655 75.3993 101.472 77.1969C100.283 77.4665 99.0025 77.6464 97.3559 78.0059C95.8007 78.3654 94.1542 78.6351 92.3246 78.9945C90.5865 79.1743 88.757 79.4439 86.9274 79.7136C85.0979 79.9832 83.3598 80.0731 81.8047 80.0731C81.8047 79.9832 81.8961 79.4439 82.0791 78.5452C82.262 77.5564 82.445 76.478 82.7194 75.1297C82.9939 73.6917 83.3598 72.2535 83.6342 70.5459C84.0001 68.8381 84.2746 67.3101 84.6405 65.6025C85.0064 63.8947 85.3723 62.4567 85.6467 61.0185C86.0126 59.5805 86.2871 58.502 86.4701 57.6031C86.5615 57.1537 86.7444 56.4346 87.0189 55.3562C87.2933 54.1876 87.5678 53.1091 87.8423 51.9407C88.2082 50.6824 88.4825 49.6038 88.757 48.5253C89.0314 47.3567 89.3059 46.6378 89.3973 46.2782C89.8547 46.2782 90.4036 46.1883 91.1355 46.2782C91.8673 46.2782 92.5991 46.2782 93.4224 46.3682C94.2456 46.458 95.1605 46.458 95.9837 46.6378C96.8986 46.7276 97.7218 46.9074 98.3622 46.9973C98.2708 47.2669 98.0878 47.8062 97.8133 48.705C97.5388 49.6038 97.3559 50.5026 96.99 51.5812C96.7156 52.5699 96.4411 53.5585 96.1668 54.4574C95.8923 55.3562 95.7093 55.9853 95.6178 56.2549C95.069 58.502 94.6116 60.7489 93.9713 63.0858C93.4224 65.3328 92.965 67.6697 92.5991 69.9167C93.3309 69.8268 94.1542 69.7369 94.886 69.6471C95.7093 69.5572 96.5327 69.3773 97.2645 69.1976C97.3559 69.1077 97.6304 69.1077 98.0878 69.0179C98.5451 68.928 99.094 68.928 99.6429 68.7483C100.283 68.6584 100.649 68.5685 101.198 68.4785C101.472 68.3887 101.838 68.2988 101.93 68.2988Z" fill="#8F99AD"/>
<path d="M13.1041 43.4915L0.9375 41.0647L3.13298 78.0054L14.7506 80.7018L14.2258 67.2536H23.0349L21.8225 79.9775L31.5216 80.7018L38.1898 39.9883L24.8535 42.4119L23.6411 58.7711L13.942 59.9829L13.1041 43.4915Z" fill="#8F99AD"/>
<path d="M173.283 78.1853C173.74 77.1068 174.197 76.0282 174.747 74.9497C175.387 73.8711 175.936 72.8824 176.393 72.0735C177.033 70.9949 177.673 70.0062 178.313 69.1973C179.503 69.8265 180.875 70.3657 182.522 70.9051C184.26 71.3544 185.998 71.714 188.102 71.714C188.833 71.714 189.383 71.624 190.023 71.4443C190.664 71.1747 191.121 70.7253 191.395 70.0961C191.487 69.8265 191.395 69.6468 190.938 69.4669C190.481 69.1973 189.932 69.0176 189.199 68.8378C188.468 68.5682 187.645 68.3884 186.822 68.1188C185.998 67.8491 185.266 67.6694 184.534 67.3997C183.711 67.1301 182.888 66.7706 181.881 66.2313C180.875 65.6022 179.961 65.0628 179.229 64.164C178.496 63.3551 177.948 62.3664 177.49 61.198C177.125 60.0296 177.033 58.5915 177.399 57.0635C177.856 54.8165 178.68 53.1088 179.778 51.4909C180.875 49.963 182.155 48.435 183.62 47.0868C184.443 46.2779 185.357 45.5589 186.364 44.8399C187.462 44.0309 188.559 43.4017 189.658 42.7726C190.846 42.1434 192.035 41.6941 193.134 41.2446C194.323 40.7953 195.329 40.5256 196.243 40.4358C196.884 40.3458 197.616 40.2559 198.348 40.3458C199.171 40.3458 199.902 40.4358 200.543 40.6155C201.275 40.7953 201.915 41.0649 202.464 41.4245C203.104 41.7839 203.47 42.413 203.654 43.1321C204.111 44.5702 204.203 46.3679 203.744 48.435C203.654 49.0642 203.561 49.6035 203.287 50.5022C203.104 51.3112 202.921 52.0302 202.647 52.8392C202.372 53.6481 202.19 54.3671 202.007 55.0862C201.732 55.8052 201.549 56.4343 201.367 56.8838C200.543 56.9736 199.719 56.9736 198.805 56.9736C197.982 56.9736 197.159 56.8838 196.336 56.8838C195.512 56.7939 194.78 56.7939 194.14 56.7939C193.5 56.704 192.951 56.6142 192.584 56.5243C192.675 56.2546 192.858 55.8052 193.042 55.2659C193.225 54.6368 193.317 54.0975 193.5 53.4684C193.682 52.7493 193.774 52.1201 193.865 51.4909C193.957 50.8618 194.048 50.5022 193.957 50.3225C193.957 50.0529 193.682 50.0529 192.951 50.4125C192.31 50.7719 191.578 51.2213 190.755 51.9404C189.932 52.5696 189.199 53.2885 188.559 54.0975C187.828 54.9064 187.37 55.6255 187.279 56.2546C187.096 57.0635 187.279 57.7826 187.919 58.3218C188.376 58.7713 189.016 59.0409 189.658 59.3105C190.298 59.5802 191.029 59.7599 191.67 59.9397C192.401 60.1194 193.042 60.2992 193.774 60.4789C194.506 60.5689 195.237 60.8385 195.877 61.1081C196.793 61.3777 197.707 61.7373 198.622 62.0968C199.628 62.4563 200.361 63.1753 200.818 64.164C201.184 64.7932 201.367 65.3325 201.367 65.7819C201.458 66.1414 201.458 66.6807 201.367 67.3098C201.367 67.7593 201.275 68.2985 201.092 68.8378C201.001 69.377 200.818 69.8265 200.726 70.186C199.628 72.7027 198.348 74.7699 196.61 76.3877C194.963 77.9157 192.768 79.0841 189.84 79.8032C189.199 79.9829 188.468 80.0728 187.645 80.1627C186.822 80.2525 186.09 80.2525 185.266 80.2525C183.071 80.2525 181.149 80.0728 179.412 79.8032C178.222 79.5336 177.307 79.3537 176.393 79.174C175.295 79.174 174.38 78.7246 173.283 78.1853Z" fill="#8F99AD"/>
<path d="M232.011 55.0852C231.92 56.1637 231.554 57.1524 231.097 58.2309C230.639 59.3095 230.091 60.2083 229.267 61.0172C227.712 62.5451 226.156 63.8035 224.236 65.0618C222.406 66.2303 220.485 67.2189 218.564 68.1177C217.009 68.8368 215.453 69.4659 213.899 70.0052C213.899 70.185 213.899 70.3647 213.807 70.6343C213.716 70.9041 213.624 71.1737 213.533 71.713C213.441 72.1623 213.258 72.8814 213.075 73.7802C212.893 74.5892 212.618 75.8475 212.344 77.2855C212.251 77.7348 212.16 78.0944 212.07 78.5438C211.977 78.9034 211.977 79.173 211.886 79.3527C210.239 79.5325 208.592 79.6223 207.038 79.7123C205.483 79.7123 204.293 79.8022 203.378 79.8022C203.561 78.6338 203.836 77.2855 204.11 75.6676C204.476 73.96 204.75 72.432 205.117 70.6343C205.483 68.8368 205.849 67.1291 206.215 65.4213C206.672 63.7137 207.038 62.1857 207.221 60.9274C207.312 60.4779 207.495 59.8488 207.586 58.95C207.769 57.9613 207.952 57.0625 208.226 56.0738C208.318 55.4446 208.501 54.7257 208.685 54.0965L206.489 54.0066C206.58 53.5571 206.763 52.928 206.946 52.209C207.22 51.4899 207.312 50.6811 207.586 49.8721C207.861 49.0632 208.044 48.1644 208.318 47.3554C208.592 46.4566 208.868 45.6478 209.142 44.9287C209.782 44.9287 210.697 44.8389 212.07 45.0186C213.441 45.1085 214.905 45.1983 216.643 45.4681C218.472 45.7377 220.302 46.0971 222.406 46.6365C224.51 47.1757 226.522 47.9846 228.535 48.8835C228.992 49.0632 229.45 49.3328 229.907 49.7823C230.457 50.2316 230.914 50.5912 231.097 51.0406C231.554 51.7596 231.92 52.3887 232.011 52.928C232.103 53.4673 232.103 54.1863 232.011 55.0852ZM216.093 60.7476C216.552 60.6578 217.1 60.388 217.832 60.1184C218.564 59.8488 219.204 59.4892 219.845 59.2196C220.577 58.8601 221.125 58.5005 221.583 58.1411C222.131 57.6917 222.406 57.3321 222.497 56.9726C222.589 56.703 222.406 56.4333 222.04 56.1637C221.674 55.8042 221.308 55.6245 221.034 55.5345C220.76 55.4446 220.394 55.2649 219.662 55.0852C219.021 54.8155 218.198 54.6358 217.375 54.456C217.375 54.456 217.283 54.5458 217.192 55.0852C217.1 55.5345 217.009 55.984 216.918 56.5232C216.826 56.9726 216.735 57.422 216.643 57.8715C216.552 58.3208 216.552 58.5005 216.552 58.5904C216.46 58.95 216.46 59.3095 216.46 59.6691C216.277 60.0286 216.186 60.388 216.093 60.7476Z" fill="#8F99AD"/>
<path d="M238.872 77.8248C238.049 77.9147 237.133 78.0047 236.128 78.0945C235.122 78.1844 234.207 78.1844 233.383 78.3642C232.56 78.454 231.645 78.454 230.914 78.5439C230.182 78.5439 229.541 78.6338 228.992 78.6338C229.084 78.454 229.084 78.2743 229.084 77.9147C229.175 77.5552 229.267 77.1059 229.358 76.7463C229.449 76.1172 229.632 75.0386 229.998 73.6005C230.365 72.0726 230.822 70.3648 231.188 68.3875C231.645 66.3202 232.103 64.253 232.56 62.0959C233.017 59.9388 233.567 57.7816 233.933 55.8942C234.39 53.9167 234.756 52.299 235.122 50.8608C235.487 49.3329 235.762 48.3442 235.853 47.8949C236.31 47.8049 236.952 47.8049 237.683 47.715C238.415 47.6252 239.238 47.4454 240.061 47.4454C240.977 47.3555 241.891 47.3555 242.806 47.2657C243.812 47.1758 244.727 47.1758 245.642 47.1758C245.642 47.1758 245.733 47.2657 245.55 47.6252C245.459 47.8949 245.459 48.0746 245.367 48.4341C245.276 48.7037 245.276 48.9734 245.093 49.243C245.001 49.5127 245.001 49.6924 245.001 49.6924C244.819 50.3216 244.543 51.4001 244.177 52.7483C243.812 54.0966 243.446 55.4447 243.08 56.9728C242.714 58.5007 242.44 59.8488 242.074 61.287C241.8 62.6351 241.525 63.6238 241.342 64.3429C240.701 67.1292 240.335 69.5559 239.878 71.6231C239.787 73.6904 239.329 75.7576 238.872 77.8248Z" fill="#8F99AD"/>
<path d="M268.328 71.0863C268.328 71.266 268.328 71.6255 268.236 72.1648C268.145 72.6142 268.145 73.1535 267.962 73.8725C267.871 74.5017 267.871 75.0409 267.779 75.6701C267.688 76.2094 267.688 76.6588 267.596 76.8385C266.682 77.1981 265.766 77.5576 264.852 77.9171C263.937 78.1868 263.114 78.4564 262.198 78.726C261.375 78.9956 260.461 79.0856 259.821 79.2654C259.089 79.3552 258.448 79.535 257.991 79.6248C257.808 78.9956 257.625 78.2767 257.442 77.5576C257.351 76.7487 257.168 75.9397 256.985 75.1309C256.893 74.4118 256.71 73.6927 256.527 72.9737C256.436 72.1648 256.253 71.3559 256.162 70.547C256.07 70.0076 255.979 69.4684 255.796 68.9291C255.704 68.3 255.43 67.5809 255.063 66.5922C254.697 67.491 254.423 68.3899 254.057 69.2887C253.783 70.1875 253.508 71.1762 253.234 72.075C253.234 72.1648 253.234 72.4345 253.143 72.7939C253.051 73.1535 253.051 73.513 252.868 73.9625C252.685 74.4118 252.685 74.951 252.594 75.4904C252.502 75.9397 252.32 76.4791 252.228 77.0184C252.137 77.4677 252.137 77.8272 251.954 78.1868C251.862 78.5463 251.862 78.8159 251.771 78.9058C250.947 78.9956 250.032 79.1755 249.118 79.2654C248.203 79.3552 247.379 79.3552 246.556 79.4451C245.733 79.535 245.001 79.535 244.361 79.535C243.72 79.535 243.171 79.6248 242.714 79.6248C242.714 79.6248 242.714 79.3552 242.806 78.9058C242.897 78.3665 243.08 77.8272 243.171 77.288C243.263 76.6588 243.354 76.2094 243.446 75.76C243.537 75.2208 243.629 74.951 243.629 74.951C243.72 74.5017 243.903 73.7826 244.087 72.8838C244.361 71.8951 244.636 70.8166 244.91 69.6482C245.276 68.4797 245.55 67.3113 245.824 66.2328C246.19 65.0642 246.373 64.1655 246.465 63.5363C246.739 62.7274 246.83 61.8286 247.105 60.9299C247.379 59.9412 247.562 58.9524 247.746 58.0537C247.836 57.6042 247.929 57.1549 248.02 56.7054C248.112 56.2561 248.203 55.8066 248.295 55.3573C248.295 55.2674 248.386 54.9078 248.478 54.2787C248.66 53.5596 248.843 52.8406 248.935 52.1216C249.118 51.3127 249.209 50.6835 249.392 50.0544C249.575 49.3353 249.666 48.9758 249.666 48.8858C250.307 48.796 251.038 48.6162 251.862 48.5264C252.685 48.3466 253.6 48.2567 254.423 48.077C255.339 47.8973 256.253 47.8073 257.168 47.7174C258.174 47.6276 259.089 47.4478 259.912 47.4478C260.095 47.8973 260.187 48.796 260.369 49.8745C260.552 50.9532 260.735 52.1216 260.827 53.4698C261.01 54.7281 261.193 55.9865 261.284 57.1549C261.467 58.3233 261.65 59.2221 261.833 59.8512C261.924 59.4917 262.017 58.8625 262.107 57.9637C262.291 57.065 262.474 56.0763 262.748 55.0876C262.931 54.2787 263.114 53.3799 263.297 52.571C263.571 51.6721 263.663 50.8632 263.846 50.1442C264.12 49.3353 264.211 48.6162 264.303 48.077C264.486 47.4478 264.577 46.9985 264.669 46.7287C265.676 46.6389 266.956 46.4591 268.694 46.2794C270.524 46.0098 272.261 46.0098 274 46.0098C273.908 46.3693 273.726 47.0883 273.36 48.1669C273.084 49.2454 272.901 50.4139 272.536 51.6721C272.261 52.9304 271.895 54.0091 271.713 55.1775C271.438 56.2561 271.255 57.065 271.164 57.4245C270.889 58.6828 270.615 59.8512 270.249 61.1096C269.975 62.278 269.609 63.5363 269.335 64.8845C269.151 65.8732 269.059 66.8619 268.785 67.9404C268.602 69.1089 268.419 70.0976 268.328 71.0863Z" fill="#8F99AD"/>
<path d="M123.373 27.9111C129.228 23.2374 129.045 15.957 129.045 15.957C129.045 16.5862 117.976 21.7094 117.793 27.7313C117.61 33.6634 120.446 36.7194 120.446 36.7194C120.446 36.7194 117.518 32.5849 123.373 27.9111Z" fill="#8F99AD"/>
<path d="M123.463 86.5133L122.914 86.2436C121.451 85.5245 120.81 83.727 121.634 82.199L124.103 77.4353C124.836 75.9973 126.665 75.3681 128.22 76.177L128.768 76.4466C130.233 77.1657 130.873 78.9633 130.05 80.4912L127.58 85.2549C126.848 86.693 125.019 87.2322 123.463 86.5133Z" fill="#8F99AD"/>
<path d="M142.857 89.1212H142.217C140.57 89.3011 139.107 88.0427 138.924 86.4249L138.465 81.1219C138.284 79.5041 139.564 78.066 141.21 77.8863L141.85 77.7964C143.497 77.6167 144.961 78.875 145.143 80.4928L145.602 85.7957C145.785 87.5035 144.503 88.9415 142.857 89.1212Z" fill="#8F99AD"/>
<path d="M132.703 89.1193L133.343 89.2091C134.989 89.389 136.453 88.1306 136.636 86.5128L137.094 81.2098C137.277 79.592 135.996 78.1539 134.349 77.9742L133.709 77.8843C132.063 77.7046 130.598 78.9629 130.416 80.5807L129.958 85.8836C129.867 87.5015 131.056 88.9395 132.703 89.1193Z" fill="#8F99AD"/>
<path d="M152.187 87.1421L152.736 86.8725C154.2 86.1535 154.84 84.3558 154.017 82.8279L151.547 78.0643C150.815 76.6262 148.985 75.997 147.431 76.806L146.882 77.0756C145.418 77.7946 144.778 79.5923 145.601 81.1202L148.071 85.8838C148.802 87.3219 150.633 87.8612 152.187 87.1421Z" fill="#8F99AD"/>
<path d="M156.853 18.2942C157.585 20.6312 160.787 32.4055 154.292 35.8209C154.475 30.8775 153.103 11.733 136.728 0.587891C136.728 0.587891 143.497 13.7104 129.958 34.203C124.562 39.9553 111.023 36.7197 112.303 56.3135C110.382 56.5832 108.004 51.8195 107.729 49.4827C107.729 49.4827 101.783 84.2661 138.741 84.2661C175.698 84.2661 182.559 33.0346 156.853 18.2942ZM138.191 68.4472C138.101 68.5371 138.008 68.5371 137.825 68.5371C137.642 68.6271 137.459 68.717 137.185 68.717C137.002 68.8068 136.819 68.8967 136.636 68.8967C136.362 68.9866 136.088 69.0764 135.813 69.1663C135.63 69.2562 135.447 69.2562 135.265 69.3461C134.99 69.4359 134.716 69.4359 134.442 69.5258C134.349 69.5258 134.166 69.6158 134.075 69.6158C133.709 69.7056 133.252 69.7056 132.886 69.7955C132.886 69.7955 132.886 69.7955 132.794 69.7955C132.429 69.7955 132.063 69.7955 131.697 69.7955C131.605 69.7955 131.423 69.7955 131.331 69.7955C131.057 69.7955 130.873 69.7955 130.598 69.7056C130.416 69.7056 130.324 69.6158 130.141 69.6158C129.958 69.6158 129.684 69.5258 129.501 69.4359C129.318 69.4359 129.227 69.3461 129.044 69.2562C128.861 69.1663 128.678 69.1663 128.495 69.0764C128.312 68.9866 128.221 68.9866 128.129 68.8967C127.946 68.8068 127.763 68.717 127.581 68.6271C127.489 68.5371 127.305 68.4472 127.215 68.3574C127.031 68.2675 126.848 68.0878 126.756 67.9979C126.665 67.908 126.482 67.8181 126.391 67.6384C126.208 67.4586 126.116 67.3687 125.933 67.1889C125.842 67.0991 125.659 66.9193 125.568 66.8295C125.385 66.6497 125.293 66.4699 125.11 66.2901C125.019 66.1104 124.927 66.0205 124.745 65.8408C124.653 65.6609 124.47 65.4812 124.379 65.2116C124.287 65.0318 124.196 64.8521 124.104 64.6724C124.013 64.4925 123.83 64.2229 123.739 63.9533C123.646 63.7735 123.556 63.5937 123.463 63.414C123.372 63.1444 123.28 62.8747 123.097 62.605C123.006 62.4253 122.914 62.2455 122.823 61.9759C122.823 61.8861 122.732 61.8861 122.732 61.7962V61.7063C122.64 61.3467 122.457 60.9872 122.366 60.5378C122.64 60.6278 123.006 60.8075 123.28 60.8974L123.372 60.9872C123.463 60.9872 123.463 60.9872 123.556 61.0771C128.861 63.3241 133.343 65.3015 137.734 67.1889L138.101 67.3687C138.558 67.8181 138.558 68.2675 138.191 68.4472ZM158.225 61.9759C158.225 62.0658 158.225 62.0658 158.225 61.9759C158.225 62.0658 158.134 62.1557 158.134 62.2455C158.042 62.4253 157.951 62.695 157.859 62.8747C157.768 63.1444 157.677 63.414 157.494 63.6837C157.402 63.8634 157.311 64.0432 157.219 64.2229C157.128 64.4925 156.945 64.6724 156.853 64.942C156.762 65.1217 156.671 65.3015 156.579 65.4812C156.488 65.6609 156.305 65.8408 156.212 66.1104C156.122 66.2901 156.029 66.38 155.846 66.5599C155.755 66.7396 155.572 66.9193 155.389 67.0991C155.298 67.1889 155.115 67.3687 155.023 67.4586C154.84 67.6384 154.749 67.7283 154.566 67.908C154.475 67.9979 154.292 68.0878 154.2 68.2675C154.017 68.3574 153.926 68.5371 153.743 68.6271C153.652 68.717 153.469 68.8068 153.377 68.8967C153.194 68.9866 153.011 69.0764 152.829 69.1663C152.737 69.2562 152.553 69.3461 152.463 69.3461C152.279 69.4359 152.096 69.5258 151.913 69.5258C151.73 69.6158 151.639 69.6158 151.456 69.7056C151.273 69.7955 150.998 69.7955 150.816 69.8854C150.633 69.8854 150.541 69.9752 150.358 69.9752C150.084 69.9752 149.901 70.0651 149.627 70.0651C149.535 70.0651 149.352 70.0651 149.261 70.0651C148.894 70.0651 148.528 70.0651 148.162 70.0651C148.162 70.0651 148.162 70.0651 148.071 70.0651C147.705 70.0651 147.248 69.9752 146.882 69.8854C146.791 69.8854 146.608 69.7955 146.516 69.7955C146.242 69.7056 145.968 69.7056 145.693 69.6158C145.509 69.6158 145.326 69.5258 145.143 69.4359C144.869 69.3461 144.595 69.2562 144.32 69.1663C144.137 69.0764 143.955 69.0764 143.772 68.9866C143.589 68.8967 143.406 68.8967 143.132 68.8068C143.04 68.8068 142.949 68.717 142.766 68.717C142.4 68.5371 142.4 68.0878 142.766 67.9979L143.132 67.8181C147.522 65.9307 152.004 63.9533 157.311 61.7063C157.402 61.7063 157.402 61.7063 157.494 61.6163L157.585 61.5266C157.859 61.4366 158.134 61.2569 158.5 61.167C158.5 61.2569 158.408 61.6163 158.225 61.9759Z" fill="#8F99AD"/>
</g>
<defs>
<clipPath id="clip0_323_2687">
<rect width="274" height="89.6727" fill="white"/>
</clipPath>
</defs>
</svg>
