<svg width="1440" height="164" viewBox="0 0 1440 164" fill="none" xmlns="http://www.w3.org/2000/svg">
<g clip-path="url(#clip0_323_1451)">
<path d="M146.905 99.203C155.938 86.9592 155.355 69.5955 155.355 68.0372C155.355 64.698 153.899 61.8041 148.945 60.2458C149.82 61.3588 150.402 62.0267 150.693 62.9172C152.15 65.5885 150.693 68.2598 147.488 69.3729C144.575 70.4859 141.953 69.5955 139.913 66.7015C139.33 66.0337 139.038 65.1433 138.747 64.4754C137.581 61.3588 139.038 58.6875 140.496 55.7936C143.992 49.783 143.409 44.2178 137.581 38.8751C136.125 37.5394 136.125 35.3133 135.834 33.5324C135.542 32.8646 136.417 31.9741 136.417 31.0837C136.708 30.1932 136.708 29.5254 136.708 28.6349C132.92 32.8646 130.88 37.3168 133.502 42.2143C135.251 45.9986 134.377 49.5604 131.171 52.677C129.423 54.4579 126.51 54.6805 123.305 53.3449C120.683 52.2318 120.1 51.1187 121.265 48.67C122.431 45.9986 124.179 43.3273 125.344 40.4333C126.51 37.3168 127.967 33.9776 127.675 30.6385C126.801 23.5149 121.556 18.1722 113.689 13.9425C111.65 12.8295 109.902 11.0486 109.319 9.49039C108.445 6.5964 108.736 3.70245 108.445 0.363281C107.862 2.14417 106.988 3.92507 106.697 5.48334C106.114 9.71299 105.822 13.7199 109.319 17.727C112.815 21.734 113.981 26.6315 113.107 31.5289C112.524 34.868 107.862 37.5394 102.618 37.5394C98.2466 37.5394 94.7508 35.0907 93.5852 31.5289C92.7108 27.9671 94.1676 24.8506 96.2076 21.9566C97.082 20.621 98.2466 19.0626 99.1211 17.727C97.9555 18.1722 97.3731 18.84 96.4987 19.7305C90.9629 25.2958 86.5927 31.3063 88.0494 38.6525C89.215 43.3273 90.6717 48.2248 92.1285 52.8996C93.002 55.7936 93.002 58.9102 90.6717 61.5814C88.9229 63.8076 85.135 64.9207 82.5127 64.2528C80.4736 63.585 79.5992 61.5814 80.1825 58.9102C80.4736 56.9066 80.7648 54.6805 80.4736 52.677C80.1825 49.5604 76.1034 46.2212 72.0239 45.5534C72.8979 46.4438 74.3548 47.3344 74.6461 48.2248C75.5201 52.4544 76.3946 56.684 72.3151 60.4684C69.9842 62.6945 66.4878 63.3624 64.1568 65.5885C62.1173 67.3693 61.735 69.817 62.3177 71.5978L146.905 99.203Z" fill="#181E29"/>
<path d="M211.938 69.6834C210.772 71.6868 209.607 75.0261 209.315 77.4747L246.901 75.9165C246.901 75.6939 249.816 82.8174 249.816 82.5948C249.233 78.1426 248.067 71.2416 247.485 69.906C246.61 66.1216 243.406 64.1181 240.491 61.2241C237.287 58.3302 236.703 55.2136 238.743 51.6518C239.326 50.5387 239.618 49.2031 240.2 47.4222C239.326 47.8674 239.326 48.09 239.034 48.09C234.664 52.097 233.79 56.5492 236.121 61.4467C237.287 64.1181 237.578 66.5668 235.247 68.7929C232.333 71.4642 228.254 71.2416 226.797 67.9024C225.923 65.8989 225.923 63.8955 225.923 61.6693C225.923 58.1076 226.797 54.7684 226.506 51.2066C226.215 46.977 221.553 40.9664 216.308 39.1855C217.182 40.5212 218.348 41.4117 219.221 42.7474C220.096 44.083 221.553 45.4187 221.844 46.977C223.593 52.7649 220.969 58.1076 216.89 63.005C214.851 65.0085 213.103 67.4572 211.938 69.6834Z" fill="#181E29"/>
<path d="M384.146 63.425C383.563 68.0999 380.067 72.1069 376.279 76.1139C375.696 76.7818 375.113 77.0044 375.113 77.6722C374.531 80.3435 373.365 83.9053 373.074 86.7992L405.707 90.1388C405.999 89.0254 408.621 83.9053 408.912 82.7923C409.787 79.2305 410.078 75.6687 413.282 72.5521C415.031 70.5486 417.361 68.7677 418.819 66.7642C423.189 61.6442 419.401 56.7467 409.787 54.9658C410.078 55.4111 410.369 55.8563 410.952 56.3015C412.7 58.7502 412.7 61.4216 411.243 63.8703C410.66 64.9833 409.203 65.8738 406.872 65.6511C405.415 65.4285 403.376 64.7607 402.793 64.0929C401.92 62.9798 401.628 61.6442 401.336 60.5311C400.754 57.8597 403.376 55.6337 405.415 53.1849C409.203 49.1779 410.369 45.1709 408.621 40.9413C406.29 34.9308 396.384 31.369 388.225 30.4785C389.682 31.1463 390.556 31.5916 391.43 31.8142C396.966 33.5951 399.006 36.489 400.171 39.6056C401.628 42.9447 395.801 46.5066 389.681 46.284C383.855 46.0613 379.775 42.9447 380.941 39.6056C382.107 36.9342 383.563 34.4856 385.02 32.0368C387.351 28.0298 384.437 22.9098 377.444 20.6836C378.319 21.7966 379.484 22.6871 380.65 23.8002C382.689 25.5811 382.689 27.5845 380.358 29.3655C378.901 30.4785 377.735 31.369 376.279 32.482C366.955 39.6056 367.538 48.2874 378.319 54.9658C383.563 57.1919 384.729 60.0858 384.146 63.425Z" fill="#181E29"/>
<path d="M172.426 68.9075C171.844 73.5823 168.347 77.5893 164.559 81.5964C163.977 82.2642 163.394 82.4868 163.394 83.1546C162.811 85.826 161.646 89.3877 161.355 92.2819L193.987 95.621C194.279 94.508 196.902 89.3877 197.193 88.2747C198.067 84.7129 198.358 81.1512 201.563 78.0346C203.312 76.0311 205.642 74.2501 207.099 72.2467C211.47 67.1266 207.682 62.2291 198.067 60.4483C198.358 60.8935 198.649 61.3387 199.232 61.7839C200.981 64.2326 200.981 66.904 199.524 69.3527C198.941 70.4658 197.484 71.3562 195.153 71.1336C193.696 70.911 191.657 70.2432 191.074 69.5753C190.2 68.4622 189.908 67.1266 189.617 66.0136C189.035 63.3422 191.657 61.1161 193.696 58.6673C197.484 54.6604 198.649 50.6533 196.902 46.4237C194.57 40.4132 184.663 36.8514 176.505 35.9609C177.962 36.6288 178.836 37.074 179.711 37.2966C185.247 39.0775 187.286 41.9714 188.451 45.088C189.908 48.4273 184.081 51.989 177.962 51.7664C172.135 51.5438 168.056 48.4273 169.222 45.088C170.387 42.4167 171.844 39.968 173.301 37.5193C175.631 33.5123 172.717 28.3922 165.725 26.166C166.599 27.2791 167.764 28.1696 168.93 29.2826C170.97 31.0635 170.97 33.067 168.638 34.8479C167.182 35.9609 166.016 36.8514 164.559 37.9645C155.236 45.088 155.818 53.7699 166.599 60.4483C171.844 62.6743 173.01 65.5683 172.426 68.9075Z" fill="#181E29"/>
<path d="M-7.97254 65.0714C-6.80708 66.6296 -13.2172 79.9864 -13.7999 81.7672C-14.9654 84.216 54.3804 74.1985 54.6718 72.4176C55.2545 69.0784 55.8373 65.7392 59.625 63.0679C62.2473 61.287 62.8301 58.8383 61.956 56.3896C61.0819 52.1599 58.7509 48.5981 55.2545 45.2589C52.3408 42.365 52.3408 39.471 54.089 36.1319C54.6718 35.0189 55.2546 33.6831 55.8373 32.5701L55.2545 32.3475C54.3803 33.4605 53.2149 34.7962 52.3408 35.9093C49.1357 41.0294 47.9703 46.372 50.3012 51.9373C51.4667 54.8312 50.884 57.9478 47.3875 59.7287C45.0566 61.0643 41.8515 62.1775 38.9378 62.8453C33.4019 63.9583 29.0313 61.0643 29.0313 56.6122C29.0313 54.6086 29.3227 52.3825 28.7399 50.379C27.2831 45.2589 22.9126 41.252 18.5421 37.6901C16.2111 35.6867 14.1715 33.6831 13.8801 31.0118C13.5888 27.8952 13.8801 24.7787 13.8801 21.6621C13.5888 21.8847 13.0061 22.3299 12.7146 22.9978C8.34412 28.7857 8.92682 34.5735 13.006 40.1388C15.337 43.478 16.7939 46.5946 16.5024 50.1564C16.2111 54.6086 12.1319 58.6157 7.17863 59.2835C2.51669 59.9513 -0.105543 58.1704 0.185806 54.6086C0.185806 53.4956 0.768505 52.3825 1.05994 51.4921C2.22534 48.1529 -0.97968 44.5911 -5.64159 44.1459C-4.47614 45.7042 -2.14517 46.8173 -3.31065 48.8207C-4.1847 50.379 -5.64157 51.9373 -6.80705 53.273C-7.09842 53.4956 -7.38982 53.7182 -7.38982 53.9408C-9.72077 55.9443 -10.3035 58.3931 -9.42939 61.0643C-9.13802 62.6227 -8.84665 63.9583 -7.97254 65.0714Z" fill="#181E29"/>
<path d="M368.604 74.6456C367.439 76.2038 373.849 89.5606 374.431 91.3415C375.597 93.7901 306.251 83.7727 305.96 81.9917C305.377 78.6526 304.794 75.3134 301.007 72.6421C298.385 70.8612 297.801 68.4125 298.676 65.9637C299.549 61.7342 301.881 58.1723 305.377 54.8331C308.291 51.9392 308.291 49.0452 306.543 45.706C305.96 44.593 305.377 43.2573 304.794 42.1443L305.377 41.9217C306.251 43.0347 307.416 44.3704 308.291 45.4834C311.495 50.6035 312.661 55.9462 310.331 61.5115C309.165 64.4054 309.747 67.522 313.244 69.3029C315.575 70.6386 318.78 71.7516 321.694 72.4195C327.229 73.5326 331.6 70.6386 331.6 66.1863C331.6 64.1828 331.309 61.9568 331.892 59.9532C333.348 54.8331 337.719 50.8261 342.09 47.2644C344.421 45.2608 346.46 43.2573 346.751 40.586C347.043 37.4694 346.751 34.3528 346.751 31.2363C347.043 31.4589 347.626 31.9042 347.917 32.572C352.288 38.3599 351.705 44.1478 347.626 49.7131C345.294 53.0523 343.838 56.1688 344.129 59.7306C344.421 64.1828 348.5 68.1899 353.453 68.8577C358.115 69.5255 360.737 67.7447 360.446 64.1828C360.446 63.0698 359.863 61.9568 359.572 61.0662C358.406 57.7271 361.612 54.1653 366.273 53.7201C365.107 55.2783 362.777 56.3914 363.942 58.3949C364.816 59.9532 366.273 61.5115 367.439 62.8472C367.73 63.0698 368.022 63.2924 368.022 63.515C370.352 65.5185 370.935 67.9673 370.061 70.6386C369.77 72.1968 369.479 73.5326 368.604 74.6456Z" fill="#181E29"/>
<path d="M37.1878 38.3582C34.5655 33.9059 33.1087 29.2311 35.1482 24.3336C35.731 23.2206 36.3137 22.1075 36.605 20.7718C37.4792 18.3231 37.7705 15.8744 35.1482 13.8709C34.8568 13.6482 34.5655 13.203 34.5655 12.9804C34.5655 12.9804 34.5655 12.9804 34.5655 12.7578C42.1411 14.9839 44.7634 19.2135 42.7238 25.4466C42.1411 27.2276 40.9756 29.0085 39.5188 30.5667C37.1878 33.9059 36.8965 34.5737 37.1878 38.3582Z" fill="#181E29"/>
<path d="M252.658 63.2832C252.951 64.3962 253.242 65.5093 252.951 66.6223L253.242 79.9791L283.544 89.3288C290.537 73.078 291.993 65.9545 291.702 63.951C291.702 63.5058 291.702 59.944 292.285 59.4988C296.364 56.1595 296.947 52.1526 292.868 48.5908C289.954 46.142 290.245 43.4707 291.411 40.7993C291.993 39.6863 292.577 38.5733 293.159 37.2376C292.868 37.2376 292.868 37.015 292.577 37.015C291.702 38.128 290.537 39.2411 289.954 40.5767C288.206 43.9159 288.206 47.2551 289.663 50.5943C290.245 51.93 289.954 53.043 289.08 54.1561C288.205 55.2691 286.457 55.7143 284.71 55.2691C283.253 54.8239 282.378 53.9335 282.67 52.8204C283.253 50.8169 284.126 48.8134 284.71 47.0325C285.583 44.8064 286.749 42.5803 286.749 40.3541C287.041 35.234 284.418 30.7819 280.338 26.7749C279.174 25.6618 277.717 24.7713 276.551 23.8809L276.259 24.1035C276.551 24.5487 277.134 25.2166 277.425 25.6618C278.591 27.4427 280.047 29.0009 280.922 31.0045C282.378 33.8984 282.087 37.015 280.047 39.6863C278.882 41.4672 276.843 42.1351 274.511 41.6899C271.598 41.022 269.85 39.2411 270.724 36.5698C271.307 34.5662 272.18 32.5627 273.055 30.7819C271.015 32.3401 269.267 34.121 267.81 36.1246C264.605 41.022 264.897 45.9194 267.227 50.8169C268.392 53.2656 269.558 55.9369 270.432 58.3857C271.015 60.6118 270.724 62.838 268.101 64.1736C265.188 65.7319 263.731 65.0641 263.148 62.838C262.857 61.9475 262.565 60.8344 262.857 59.944C263.44 57.2727 262.565 55.0465 260.818 52.8204C259.361 51.0395 257.903 49.2586 257.612 47.0325C257.321 47.4778 256.738 47.7004 256.738 48.1456C256.155 49.9264 257.03 51.2621 257.612 52.8204C258.195 54.1561 258.778 55.7143 259.069 57.05C259.361 58.3857 258.195 59.2761 256.446 59.2761C254.698 59.2761 253.533 58.6083 253.533 57.05C253.533 55.9369 254.116 54.6013 254.116 53.4883C251.494 54.8239 250.328 56.3822 250.911 58.8309C251.493 60.3892 252.367 61.7248 252.658 63.2832Z" fill="#181E29"/>
<path d="M277.568 57.2717C276.111 54.1551 274.071 51.4838 276.403 48.5898C276.985 49.7029 277.568 51.0386 278.151 52.1517C278.734 53.9325 278.442 55.4908 277.568 57.2717Z" fill="#181E29"/>
</g>
<g clip-path="url(#clip1_323_1451)">
<path d="M581.435 99.203C590.468 86.9592 589.885 69.5955 589.885 68.0372C589.885 64.698 588.429 61.8041 583.475 60.2458C584.35 61.3588 584.932 62.0267 585.223 62.9172C586.68 65.5885 585.223 68.2598 582.019 69.3729C579.105 70.4859 576.483 69.5955 574.443 66.7015C573.86 66.0337 573.568 65.1433 573.277 64.4754C572.112 61.3588 573.568 58.6875 575.026 55.7936C578.522 49.783 577.939 44.2178 572.112 38.8751C570.655 37.5394 570.655 35.3133 570.364 33.5324C570.072 32.8646 570.947 31.9741 570.947 31.0837C571.238 30.1932 571.238 29.5254 571.238 28.6349C567.45 32.8646 565.41 37.3168 568.033 42.2143C569.781 45.9986 568.907 49.5604 565.701 52.677C563.953 54.4579 561.04 54.6805 557.835 53.3449C555.213 52.2318 554.63 51.1187 555.795 48.67C556.961 45.9986 558.709 43.3273 559.874 40.4333C561.04 37.3168 562.497 33.9776 562.206 30.6385C561.331 23.5149 556.086 18.1722 548.219 13.9425C546.18 12.8295 544.432 11.0486 543.849 9.49039C542.975 6.5964 543.266 3.70245 542.975 0.363281C542.393 2.14417 541.518 3.92507 541.227 5.48334C540.644 9.71299 540.353 13.7199 543.849 17.727C547.345 21.734 548.511 26.6315 547.637 31.5289C547.054 34.868 542.393 37.5394 537.148 37.5394C532.777 37.5394 529.281 35.0907 528.115 31.5289C527.241 27.9671 528.698 24.8506 530.738 21.9566C531.612 20.621 532.777 19.0626 533.651 17.727C532.486 18.1722 531.903 18.84 531.029 19.7305C525.493 25.2958 521.123 31.3063 522.58 38.6525C523.745 43.3273 525.202 48.2248 526.659 52.8996C527.532 55.7936 527.532 58.9102 525.202 61.5814C523.453 63.8076 519.665 64.9207 517.043 64.2528C515.004 63.585 514.129 61.5814 514.713 58.9102C515.004 56.9066 515.295 54.6805 515.004 52.677C514.713 49.5604 510.633 46.2212 506.554 45.5534C507.428 46.4438 508.885 47.3344 509.176 48.2248C510.05 52.4544 510.925 56.684 506.845 60.4684C504.514 62.6945 501.018 63.3624 498.687 65.5885C496.647 67.3693 496.265 69.817 496.848 71.5978L581.435 99.203Z" fill="#181E29"/>
<path d="M646.469 69.6834C645.303 71.6868 644.138 75.0261 643.847 77.4747L681.433 75.9165C681.433 75.6939 684.347 82.8174 684.347 82.5948C683.764 78.1426 682.598 71.2416 682.016 69.906C681.142 66.1216 677.937 64.1181 675.022 61.2241C671.818 58.3302 671.235 55.2136 673.275 51.6518C673.857 50.5387 674.149 49.2031 674.731 47.4222C673.857 47.8674 673.857 48.09 673.566 48.09C669.195 52.097 668.321 56.5492 670.652 61.4467C671.818 64.1181 672.109 66.5668 669.778 68.7929C666.864 71.4642 662.785 71.2416 661.329 67.9024C660.454 65.8989 660.454 63.8955 660.454 61.6693C660.454 58.1076 661.329 54.7684 661.037 51.2066C660.746 46.977 656.084 40.9664 650.839 39.1855C651.714 40.5212 652.879 41.4117 653.753 42.7474C654.627 44.083 656.084 45.4187 656.375 46.977C658.124 52.7649 655.501 58.1076 651.422 63.005C649.382 65.0085 647.635 67.4572 646.469 69.6834Z" fill="#181E29"/>
<path d="M818.676 63.425C818.094 68.0999 814.597 72.1069 810.809 76.1139C810.227 76.7818 809.643 77.0044 809.643 77.6722C809.061 80.3435 807.895 83.9053 807.604 86.7992L840.238 90.1388C840.529 89.0254 843.151 83.9053 843.442 82.7923C844.317 79.2305 844.608 75.6687 847.813 72.5521C849.561 70.5486 851.892 68.7677 853.349 66.7642C857.72 61.6442 853.932 56.7467 844.317 54.9658C844.608 55.4111 844.899 55.8563 845.482 56.3015C847.23 58.7502 847.23 61.4216 845.774 63.8703C845.19 64.9833 843.734 65.8738 841.402 65.6511C839.946 65.4285 837.907 64.7607 837.323 64.0929C836.45 62.9798 836.159 61.6442 835.867 60.5311C835.284 57.8597 837.907 55.6337 839.946 53.1849C843.734 49.1779 844.899 45.1709 843.151 40.9413C840.82 34.9308 830.914 31.369 822.755 30.4785C824.212 31.1463 825.086 31.5916 825.961 31.8142C831.496 33.5951 833.536 36.489 834.701 39.6056C836.159 42.9447 830.331 46.5066 824.212 46.284C818.385 46.0613 814.306 42.9447 815.471 39.6056C816.637 36.9342 818.094 34.4856 819.55 32.0368C821.882 28.0298 818.967 22.9098 811.975 20.6836C812.849 21.7966 814.015 22.6871 815.18 23.8002C817.219 25.5811 817.219 27.5845 814.888 29.3655C813.431 30.4785 812.266 31.369 810.809 32.482C801.485 39.6056 802.069 48.2874 812.849 54.9658C818.094 57.1919 819.259 60.0858 818.676 63.425Z" fill="#181E29"/>
<path d="M606.957 68.9075C606.374 73.5823 602.877 77.5893 599.09 81.5964C598.507 82.2642 597.924 82.4868 597.924 83.1546C597.342 85.826 596.176 89.3877 595.885 92.2819L628.517 95.621C628.81 94.508 631.432 89.3877 631.723 88.2747C632.597 84.7129 632.889 81.1512 636.093 78.0346C637.842 76.0311 640.172 74.2501 641.629 72.2467C646 67.1266 642.212 62.2291 632.597 60.4483C632.889 60.8935 633.18 61.3387 633.762 61.7839C635.511 64.2326 635.511 66.904 634.054 69.3527C633.471 70.4658 632.014 71.3562 629.683 71.1336C628.226 70.911 626.187 70.2432 625.604 69.5753C624.73 68.4622 624.438 67.1266 624.147 66.0136C623.565 63.3422 626.187 61.1161 628.226 58.6673C632.014 54.6604 633.18 50.6533 631.432 46.4237C629.101 40.4132 619.194 36.8514 611.036 35.9609C612.492 36.6288 613.367 37.074 614.241 37.2966C619.777 39.0775 621.816 41.9714 622.982 45.088C624.438 48.4273 618.611 51.989 612.492 51.7664C606.665 51.5438 602.586 48.4273 603.752 45.088C604.917 42.4167 606.374 39.968 607.831 37.5193C610.161 33.5123 607.248 28.3922 600.255 26.166C601.13 27.2791 602.294 28.1696 603.46 29.2826C605.5 31.0635 605.5 33.067 603.169 34.8479C601.712 35.9609 600.546 36.8514 599.09 37.9645C589.766 45.088 590.348 53.7699 601.13 60.4483C606.374 62.6743 607.54 65.5683 606.957 68.9075Z" fill="#181E29"/>
<path d="M426.558 65.0714C427.723 66.6296 421.313 79.9864 420.73 81.7672C419.565 84.216 488.911 74.1985 489.202 72.4176C489.785 69.0784 490.368 65.7392 494.155 63.0679C496.778 61.287 497.36 58.8383 496.486 56.3896C495.612 52.1599 493.281 48.5981 489.785 45.2589C486.871 42.365 486.871 39.471 488.619 36.1319C489.202 35.0189 489.785 33.6831 490.368 32.5701L489.785 32.3475C488.911 33.4605 487.745 34.7962 486.871 35.9093C483.666 41.0294 482.501 46.372 484.831 51.9373C485.997 54.8312 485.414 57.9478 481.918 59.7287C479.587 61.0643 476.382 62.1775 473.468 62.8453C467.932 63.9583 463.562 61.0643 463.562 56.6122C463.562 54.6086 463.853 52.3825 463.27 50.379C461.813 45.2589 457.443 41.252 453.072 37.6901C450.741 35.6867 448.702 33.6831 448.41 31.0118C448.119 27.8952 448.41 24.7787 448.41 21.6621C448.119 21.8847 447.536 22.3299 447.245 22.9978C442.874 28.7857 443.457 34.5735 447.536 40.1388C449.867 43.478 451.324 46.5946 451.033 50.1564C450.741 54.6086 446.662 58.6157 441.709 59.2835C437.047 59.9513 434.425 58.1704 434.716 54.6086C434.716 53.4956 435.299 52.3825 435.59 51.4921C436.756 48.1529 433.551 44.5911 428.889 44.1459C430.054 45.7042 432.385 46.8173 431.22 48.8207C430.346 50.379 428.889 51.9373 427.723 53.273C427.432 53.4956 427.14 53.7182 427.14 53.9408C424.81 55.9443 424.227 58.3931 425.101 61.0643C425.392 62.6227 425.684 63.9583 426.558 65.0714Z" fill="#181E29"/>
<path d="M803.135 74.6456C801.97 76.2038 808.38 89.5606 808.962 91.3415C810.128 93.7901 740.782 83.7727 740.491 81.9917C739.908 78.6526 739.325 75.3134 735.538 72.6421C732.916 70.8612 732.333 68.4125 733.207 65.9637C734.081 61.7342 736.412 58.1723 739.908 54.8331C742.822 51.9392 742.822 49.0452 741.074 45.706C740.491 44.593 739.908 43.2573 739.325 42.1443L739.908 41.9217C740.782 43.0347 741.948 44.3704 742.822 45.4834C746.027 50.6035 747.192 55.9462 744.862 61.5115C743.696 64.4054 744.279 67.522 747.775 69.3029C750.107 70.6386 753.311 71.7516 756.225 72.4195C761.761 73.5326 766.132 70.6386 766.132 66.1863C766.132 64.1828 765.841 61.9568 766.423 59.9532C767.88 54.8331 772.25 50.8261 776.621 47.2644C778.952 45.2608 780.991 43.2573 781.282 40.586C781.574 37.4694 781.282 34.3528 781.282 31.2363C781.574 31.4589 782.157 31.9042 782.448 32.572C786.819 38.3599 786.236 44.1478 782.157 49.7131C779.826 53.0523 778.369 56.1688 778.66 59.7306C778.952 64.1828 783.031 68.1899 787.984 68.8577C792.646 69.5255 795.268 67.7447 794.977 64.1828C794.977 63.0698 794.394 61.9568 794.103 61.0662C792.937 57.7271 796.143 54.1653 800.804 53.7201C799.639 55.2783 797.308 56.3914 798.473 58.3949C799.347 59.9532 800.804 61.5115 801.97 62.8472C802.261 63.0698 802.553 63.2924 802.553 63.515C804.883 65.5185 805.467 67.9673 804.592 70.6386C804.301 72.1968 804.01 73.5326 803.135 74.6456Z" fill="#181E29"/>
<path d="M471.718 38.3582C469.096 33.9059 467.639 29.2311 469.678 24.3336C470.261 23.2206 470.844 22.1075 471.135 20.7718C472.009 18.3231 472.301 15.8744 469.678 13.8709C469.387 13.6482 469.096 13.203 469.096 12.9804C469.096 12.9804 469.096 12.9804 469.096 12.7578C476.671 14.9839 479.294 19.2135 477.254 25.4466C476.671 27.2276 475.506 29.0085 474.049 30.5667C471.718 33.9059 471.427 34.5737 471.718 38.3582Z" fill="#181E29"/>
<path d="M687.189 63.2832C687.481 64.3962 687.772 65.5093 687.481 66.6223L687.772 79.9791L718.074 89.3288C725.067 73.078 726.524 65.9545 726.232 63.951C726.232 63.5058 726.232 59.944 726.816 59.4988C730.895 56.1595 731.477 52.1526 727.398 48.5908C724.485 46.142 724.776 43.4707 725.941 40.7993C726.524 39.6863 727.107 38.5733 727.689 37.2376C727.398 37.2376 727.398 37.015 727.107 37.015C726.232 38.128 725.067 39.2411 724.485 40.5767C722.737 43.9159 722.737 47.2551 724.193 50.5943C724.776 51.93 724.484 53.043 723.61 54.1561C722.736 55.2691 720.988 55.7143 719.24 55.2691C717.783 54.8239 716.909 53.9335 717.2 52.8204C717.783 50.8169 718.657 48.8134 719.24 47.0325C720.113 44.8064 721.279 42.5803 721.279 40.3541C721.571 35.234 718.949 30.7819 714.869 26.7749C713.704 25.6618 712.247 24.7713 711.082 23.8809L710.79 24.1035C711.082 24.5487 711.664 25.2166 711.955 25.6618C713.121 27.4427 714.578 29.0009 715.452 31.0045C716.909 33.8984 716.618 37.015 714.578 39.6863C713.412 41.4672 711.373 42.1351 709.042 41.6899C706.128 41.022 704.38 39.2411 705.254 36.5698C705.837 34.5662 706.711 32.5627 707.585 30.7819C705.545 32.3401 703.797 34.121 702.34 36.1246C699.136 41.022 699.427 45.9194 701.757 50.8169C702.923 53.2656 704.088 55.9369 704.963 58.3857C705.545 60.6118 705.254 62.838 702.632 64.1736C699.718 65.7319 698.261 65.0641 697.678 62.838C697.387 61.9475 697.096 60.8344 697.387 59.944C697.97 57.2727 697.096 55.0465 695.348 52.8204C693.891 51.0395 692.433 49.2586 692.142 47.0325C691.851 47.4778 691.268 47.7004 691.268 48.1456C690.685 49.9264 691.56 51.2621 692.142 52.8204C692.725 54.1561 693.308 55.7143 693.599 57.05C693.891 58.3857 692.725 59.2761 690.977 59.2761C689.229 59.2761 688.063 58.6083 688.063 57.05C688.063 55.9369 688.646 54.6013 688.646 53.4883C686.024 54.8239 684.858 56.3822 685.441 58.8309C686.023 60.3892 686.898 61.7248 687.189 63.2832Z" fill="#181E29"/>
<path d="M712.099 57.2717C710.643 54.1551 708.603 51.4838 710.934 48.5898C711.516 49.7029 712.099 51.0386 712.682 52.1517C713.265 53.9325 712.973 55.4908 712.099 57.2717Z" fill="#181E29"/>
</g>
<g clip-path="url(#clip2_323_1451)">
<path d="M1015.97 99.203C1025 86.9592 1024.42 69.5955 1024.42 68.0372C1024.42 64.698 1022.96 61.8041 1018.01 60.2458C1018.88 61.3588 1019.46 62.0267 1019.75 62.9172C1021.21 65.5885 1019.75 68.2598 1016.55 69.3729C1013.64 70.4859 1011.01 69.5955 1008.97 66.7015C1008.39 66.0337 1008.1 65.1433 1007.81 64.4754C1006.64 61.3588 1008.1 58.6875 1009.56 55.7936C1013.05 49.783 1012.47 44.2178 1006.64 38.8751C1005.19 37.5394 1005.19 35.3133 1004.89 33.5324C1004.6 32.8646 1005.48 31.9741 1005.48 31.0837C1005.77 30.1932 1005.77 29.5254 1005.77 28.6349C1001.98 32.8646 999.941 37.3168 1002.56 42.2143C1004.31 45.9986 1003.44 49.5604 1000.23 52.677C998.485 54.4579 995.571 54.6805 992.367 53.3449C989.744 52.2318 989.161 51.1187 990.327 48.67C991.492 45.9986 993.24 43.3273 994.406 40.4333C995.571 37.3168 997.028 33.9776 996.737 30.6385C995.862 23.5149 990.618 18.1722 982.751 13.9425C980.712 12.8295 978.963 11.0486 978.381 9.49039C977.506 6.5964 977.797 3.70245 977.506 0.363281C976.924 2.14417 976.049 3.92507 975.758 5.48334C975.175 9.71299 974.884 13.7199 978.381 17.727C981.876 21.734 983.042 26.6315 982.168 31.5289C981.585 34.868 976.924 37.5394 971.679 37.5394C967.308 37.5394 963.812 35.0907 962.647 31.5289C961.772 27.9671 963.229 24.8506 965.269 21.9566C966.143 20.621 967.308 19.0626 968.182 17.727C967.017 18.1722 966.435 18.84 965.56 19.7305C960.024 25.2958 955.654 31.3063 957.111 38.6525C958.276 43.3273 959.733 48.2248 961.19 52.8996C962.063 55.7936 962.063 58.9102 959.733 61.5814C957.984 63.8076 954.196 64.9207 951.574 64.2528C949.535 63.585 948.661 61.5814 949.244 58.9102C949.535 56.9066 949.826 54.6805 949.535 52.677C949.244 49.5604 945.165 46.2212 941.085 45.5534C941.959 46.4438 943.416 47.3344 943.708 48.2248C944.582 52.4544 945.456 56.684 941.377 60.4684C939.046 62.6945 935.549 63.3624 933.218 65.5885C931.179 67.3693 930.796 69.817 931.379 71.5978L1015.97 99.203Z" fill="#181E29"/>
<path d="M1081 69.6834C1079.83 71.6868 1078.67 75.0261 1078.38 77.4747L1115.96 75.9165C1115.96 75.6939 1118.88 82.8174 1118.88 82.5948C1118.29 78.1426 1117.13 71.2416 1116.55 69.906C1115.67 66.1216 1112.47 64.1181 1109.55 61.2241C1106.35 58.3302 1105.77 55.2136 1107.81 51.6518C1108.39 50.5387 1108.68 49.2031 1109.26 47.4222C1108.39 47.8674 1108.39 48.09 1108.1 48.09C1103.73 52.097 1102.85 56.5492 1105.18 61.4467C1106.35 64.1181 1106.64 66.5668 1104.31 68.7929C1101.4 71.4642 1097.32 71.2416 1095.86 67.9024C1094.99 65.8989 1094.99 63.8955 1094.99 61.6693C1094.99 58.1076 1095.86 54.7684 1095.57 51.2066C1095.28 46.977 1090.62 40.9664 1085.37 39.1855C1086.24 40.5212 1087.41 41.4117 1088.28 42.7474C1089.16 44.083 1090.62 45.4187 1090.91 46.977C1092.65 52.7649 1090.03 58.1076 1085.95 63.005C1083.91 65.0085 1082.17 67.4572 1081 69.6834Z" fill="#181E29"/>
<path d="M1253.21 63.425C1252.62 68.0999 1249.13 72.1069 1245.34 76.1139C1244.76 76.7818 1244.17 77.0044 1244.17 77.6722C1243.59 80.3435 1242.43 83.9053 1242.14 86.7992L1274.77 90.1388C1275.06 89.0254 1277.68 83.9053 1277.97 82.7923C1278.85 79.2305 1279.14 75.6687 1282.34 72.5521C1284.09 70.5486 1286.42 68.7677 1287.88 66.7642C1292.25 61.6442 1288.46 56.7467 1278.85 54.9658C1279.14 55.4111 1279.43 55.8563 1280.01 56.3015C1281.76 58.7502 1281.76 61.4216 1280.3 63.8703C1279.72 64.9833 1278.26 65.8738 1275.93 65.6511C1274.48 65.4285 1272.44 64.7607 1271.85 64.0929C1270.98 62.9798 1270.69 61.6442 1270.4 60.5311C1269.82 57.8597 1272.44 55.6337 1274.48 53.1849C1278.26 49.1779 1279.43 45.1709 1277.68 40.9413C1275.35 34.9308 1265.45 31.369 1257.29 30.4785C1258.74 31.1463 1259.62 31.5916 1260.49 31.8142C1266.03 33.5951 1268.07 36.489 1269.23 39.6056C1270.69 42.9447 1264.86 46.5066 1258.74 46.284C1252.92 46.0613 1248.84 42.9447 1250 39.6056C1251.17 36.9342 1252.62 34.4856 1254.08 32.0368C1256.41 28.0298 1253.5 22.9098 1246.51 20.6836C1247.38 21.7966 1248.55 22.6871 1249.71 23.8002C1251.75 25.5811 1251.75 27.5845 1249.42 29.3655C1247.96 30.4785 1246.8 31.369 1245.34 32.482C1236.02 39.6056 1236.6 48.2874 1247.38 54.9658C1252.62 57.1919 1253.79 60.0858 1253.21 63.425Z" fill="#181E29"/>
<path d="M1041.49 68.9075C1040.91 73.5823 1037.41 77.5893 1033.62 81.5964C1033.04 82.2642 1032.46 82.4868 1032.46 83.1546C1031.87 85.826 1030.71 89.3877 1030.42 92.2819L1063.05 95.621C1063.34 94.508 1065.96 89.3877 1066.25 88.2747C1067.13 84.7129 1067.42 81.1512 1070.62 78.0346C1072.37 76.0311 1074.7 74.2501 1076.16 72.2467C1080.53 67.1266 1076.74 62.2291 1067.13 60.4483C1067.42 60.8935 1067.71 61.3387 1068.29 61.7839C1070.04 64.2326 1070.04 66.904 1068.59 69.3527C1068 70.4658 1066.55 71.3562 1064.21 71.1336C1062.76 70.911 1060.72 70.2432 1060.14 69.5753C1059.26 68.4622 1058.97 67.1266 1058.68 66.0136C1058.1 63.3422 1060.72 61.1161 1062.76 58.6673C1066.55 54.6604 1067.71 50.6533 1065.96 46.4237C1063.63 40.4132 1053.72 36.8514 1045.57 35.9609C1047.02 36.6288 1047.9 37.074 1048.77 37.2966C1054.31 39.0775 1056.35 41.9714 1057.51 45.088C1058.97 48.4273 1053.14 51.989 1047.02 51.7664C1041.2 51.5438 1037.12 48.4273 1038.28 45.088C1039.45 42.4167 1040.91 39.968 1042.36 37.5193C1044.69 33.5123 1041.78 28.3922 1034.79 26.166C1035.66 27.2791 1036.83 28.1696 1037.99 29.2826C1040.03 31.0635 1040.03 33.067 1037.7 34.8479C1036.24 35.9609 1035.08 36.8514 1033.62 37.9645C1024.3 45.088 1024.88 53.7699 1035.66 60.4483C1040.91 62.6743 1042.07 65.5683 1041.49 68.9075Z" fill="#181E29"/>
<path d="M861.089 65.0714C862.254 66.6296 855.844 79.9864 855.262 81.7672C854.096 84.216 923.442 74.1985 923.733 72.4176C924.316 69.0784 924.899 65.7392 928.687 63.0679C931.309 61.287 931.892 58.8383 931.017 56.3896C930.143 52.1599 927.812 48.5981 924.316 45.2589C921.402 42.365 921.402 39.471 923.151 36.1319C923.733 35.0189 924.316 33.6831 924.899 32.5701L924.316 32.3475C923.442 33.4605 922.276 34.7962 921.402 35.9093C918.197 41.0294 917.032 46.372 919.363 51.9373C920.528 54.8312 919.945 57.9478 916.449 59.7287C914.118 61.0643 910.913 62.1775 907.999 62.8453C902.463 63.9583 898.093 61.0643 898.093 56.6122C898.093 54.6086 898.384 52.3825 897.801 50.379C896.345 45.2589 891.974 41.252 887.604 37.6901C885.273 35.6867 883.233 33.6831 882.942 31.0118C882.65 27.8952 882.942 24.7787 882.942 21.6621C882.65 21.8847 882.068 22.3299 881.776 22.9978C877.406 28.7857 877.988 34.5735 882.068 40.1388C884.398 43.478 885.855 46.5946 885.564 50.1564C885.273 54.6086 881.193 58.6157 876.24 59.2835C871.578 59.9513 868.956 58.1704 869.247 54.6086C869.247 53.4956 869.83 52.3825 870.121 51.4921C871.287 48.1529 868.082 44.5911 863.42 44.1459C864.585 45.7042 866.916 46.8173 865.751 48.8207C864.877 50.379 863.42 51.9373 862.254 53.273C861.963 53.4956 861.672 53.7182 861.672 53.9408C859.341 55.9443 858.758 58.3931 859.632 61.0643C859.924 62.6227 860.215 63.9583 861.089 65.0714Z" fill="#181E29"/>
<path d="M1237.67 74.6456C1236.5 76.2038 1242.91 89.5606 1243.49 91.3415C1244.66 93.7901 1175.31 83.7727 1175.02 81.9917C1174.44 78.6526 1173.86 75.3134 1170.07 72.6421C1167.45 70.8612 1166.86 68.4125 1167.74 65.9637C1168.61 61.7342 1170.94 58.1723 1174.44 54.8331C1177.35 51.9392 1177.35 49.0452 1175.61 45.706C1175.02 44.593 1174.44 43.2573 1173.86 42.1443L1174.44 41.9217C1175.31 43.0347 1176.48 44.3704 1177.35 45.4834C1180.56 50.6035 1181.72 55.9462 1179.39 61.5115C1178.23 64.4054 1178.81 67.522 1182.31 69.3029C1184.64 70.6386 1187.84 71.7516 1190.76 72.4195C1196.29 73.5326 1200.66 70.6386 1200.66 66.1863C1200.66 64.1828 1200.37 61.9568 1200.95 59.9532C1202.41 54.8331 1206.78 50.8261 1211.15 47.2644C1213.48 45.2608 1215.52 43.2573 1215.81 40.586C1216.11 37.4694 1215.81 34.3528 1215.81 31.2363C1216.11 31.4589 1216.69 31.9042 1216.98 32.572C1221.35 38.3599 1220.77 44.1478 1216.69 49.7131C1214.36 53.0523 1212.9 56.1688 1213.19 59.7306C1213.48 64.1828 1217.56 68.1899 1222.52 68.8577C1227.18 69.5255 1229.8 67.7447 1229.51 64.1828C1229.51 63.0698 1228.93 61.9568 1228.63 61.0662C1227.47 57.7271 1230.67 54.1653 1235.34 53.7201C1234.17 55.2783 1231.84 56.3914 1233 58.3949C1233.88 59.9532 1235.34 61.5115 1236.5 62.8472C1236.79 63.0698 1237.08 63.2924 1237.08 63.515C1239.41 65.5185 1240 67.9673 1239.12 70.6386C1238.83 72.1968 1238.54 73.5326 1237.67 74.6456Z" fill="#181E29"/>
<path d="M906.249 38.3582C903.627 33.9059 902.17 29.2311 904.21 24.3336C904.793 23.2206 905.375 22.1075 905.667 20.7718C906.541 18.3231 906.832 15.8744 904.21 13.8709C903.918 13.6482 903.627 13.203 903.627 12.9804C903.627 12.9804 903.627 12.9804 903.627 12.7578C911.203 14.9839 913.825 19.2135 911.785 25.4466C911.203 27.2276 910.037 29.0085 908.58 30.5667C906.249 33.9059 905.958 34.5737 906.249 38.3582Z" fill="#181E29"/>
<path d="M1121.72 63.2832C1122.01 64.3962 1122.3 65.5093 1122.01 66.6223L1122.3 79.9791L1152.61 89.3288C1159.6 73.078 1161.05 65.9545 1160.76 63.951C1160.76 63.5058 1160.76 59.944 1161.35 59.4988C1165.43 56.1595 1166.01 52.1526 1161.93 48.5908C1159.02 46.142 1159.31 43.4707 1160.47 40.7993C1161.05 39.6863 1161.64 38.5733 1162.22 37.2376C1161.93 37.2376 1161.93 37.015 1161.64 37.015C1160.76 38.128 1159.6 39.2411 1159.02 40.5767C1157.27 43.9159 1157.27 47.2551 1158.72 50.5943C1159.31 51.93 1159.02 53.043 1158.14 54.1561C1157.27 55.2691 1155.52 55.7143 1153.77 55.2691C1152.31 54.8239 1151.44 53.9335 1151.73 52.8204C1152.31 50.8169 1153.19 48.8134 1153.77 47.0325C1154.64 44.8064 1155.81 42.5803 1155.81 40.3541C1156.1 35.234 1153.48 30.7819 1149.4 26.7749C1148.24 25.6618 1146.78 24.7713 1145.61 23.8809L1145.32 24.1035C1145.61 24.5487 1146.2 25.2166 1146.49 25.6618C1147.65 27.4427 1149.11 29.0009 1149.98 31.0045C1151.44 33.8984 1151.15 37.015 1149.11 39.6863C1147.94 41.4672 1145.9 42.1351 1143.57 41.6899C1140.66 41.022 1138.91 39.2411 1139.79 36.5698C1140.37 34.5662 1141.24 32.5627 1142.12 30.7819C1140.08 32.3401 1138.33 34.121 1136.87 36.1246C1133.67 41.022 1133.96 45.9194 1136.29 50.8169C1137.45 53.2656 1138.62 55.9369 1139.49 58.3857C1140.08 60.6118 1139.79 62.838 1137.16 64.1736C1134.25 65.7319 1132.79 65.0641 1132.21 62.838C1131.92 61.9475 1131.63 60.8344 1131.92 59.944C1132.5 57.2727 1131.63 55.0465 1129.88 52.8204C1128.42 51.0395 1126.96 49.2586 1126.67 47.0325C1126.38 47.4778 1125.8 47.7004 1125.8 48.1456C1125.22 49.9264 1126.09 51.2621 1126.67 52.8204C1127.26 54.1561 1127.84 55.7143 1128.13 57.05C1128.42 58.3857 1127.26 59.2761 1125.51 59.2761C1123.76 59.2761 1122.59 58.6083 1122.59 57.05C1122.59 55.9369 1123.18 54.6013 1123.18 53.4883C1120.56 54.8239 1119.39 56.3822 1119.97 58.8309C1120.55 60.3892 1121.43 61.7248 1121.72 63.2832Z" fill="#181E29"/>
<path d="M1146.63 57.2717C1145.17 54.1551 1143.13 51.4838 1145.47 48.5898C1146.05 49.7029 1146.63 51.0386 1147.21 52.1517C1147.8 53.9325 1147.5 55.4908 1146.63 57.2717Z" fill="#181E29"/>
</g>
<g clip-path="url(#clip3_323_1451)">
<path d="M1450.5 99.203C1459.53 86.9592 1458.95 69.5955 1458.95 68.0372C1458.95 64.698 1457.49 61.8041 1452.54 60.2458C1453.41 61.3588 1453.99 62.0267 1454.29 62.9172C1455.74 65.5885 1454.29 68.2598 1451.08 69.3729C1448.17 70.4859 1445.54 69.5955 1443.5 66.7015C1442.92 66.0337 1442.63 65.1433 1442.34 64.4754C1441.17 61.3588 1442.63 58.6875 1444.09 55.7936C1447.58 49.783 1447 44.2178 1441.17 38.8751C1439.72 37.5394 1439.72 35.3133 1439.43 33.5324C1439.13 32.8646 1440.01 31.9741 1440.01 31.0837C1440.3 30.1932 1440.3 29.5254 1440.3 28.6349C1436.51 32.8646 1434.47 37.3168 1437.09 42.2143C1438.84 45.9986 1437.97 49.5604 1434.76 52.677C1433.02 54.4579 1430.1 54.6805 1426.9 53.3449C1424.28 52.2318 1423.69 51.1187 1424.86 48.67C1426.02 45.9986 1427.77 43.3273 1428.94 40.4333C1430.1 37.3168 1431.56 33.9776 1431.27 30.6385C1430.39 23.5149 1425.15 18.1722 1417.28 13.9425C1415.24 12.8295 1413.49 11.0486 1412.91 9.49039C1412.04 6.5964 1412.33 3.70245 1412.04 0.363281C1411.45 2.14417 1410.58 3.92507 1410.29 5.48334C1409.71 9.71299 1409.41 13.7199 1412.91 17.727C1416.41 21.734 1417.57 26.6315 1416.7 31.5289C1416.12 34.868 1411.45 37.5394 1406.21 37.5394C1401.84 37.5394 1398.34 35.0907 1397.18 31.5289C1396.3 27.9671 1397.76 24.8506 1399.8 21.9566C1400.67 20.621 1401.84 19.0626 1402.71 17.727C1401.55 18.1722 1400.97 18.84 1400.09 19.7305C1394.56 25.2958 1390.18 31.3063 1391.64 38.6525C1392.81 43.3273 1394.26 48.2248 1395.72 52.8996C1396.59 55.7936 1396.59 58.9102 1394.26 61.5814C1392.52 63.8076 1388.73 64.9207 1386.1 64.2528C1384.07 63.585 1383.19 61.5814 1383.77 58.9102C1384.07 56.9066 1384.36 54.6805 1384.07 52.677C1383.77 49.5604 1379.7 46.2212 1375.62 45.5534C1376.49 46.4438 1377.95 47.3344 1378.24 48.2248C1379.11 52.4544 1379.99 56.684 1375.91 60.4684C1373.58 62.6945 1370.08 63.3624 1367.75 65.5885C1365.71 67.3693 1365.33 69.817 1365.91 71.5978L1450.5 99.203Z" fill="#181E29"/>
<path d="M1295.62 65.0714C1296.79 66.6296 1290.38 79.9864 1289.79 81.7672C1288.63 84.216 1357.97 74.1985 1358.26 72.4176C1358.85 69.0784 1359.43 65.7392 1363.22 63.0679C1365.84 61.287 1366.42 58.8383 1365.55 56.3896C1364.67 52.1599 1362.34 48.5981 1358.85 45.2589C1355.93 42.365 1355.93 39.471 1357.68 36.1319C1358.26 35.0189 1358.85 33.6831 1359.43 32.5701L1358.85 32.3475C1357.97 33.4605 1356.81 34.7962 1355.93 35.9093C1352.73 41.0294 1351.56 46.372 1353.89 51.9373C1355.06 54.8312 1354.48 57.9478 1350.98 59.7287C1348.65 61.0643 1345.44 62.1775 1342.53 62.8453C1336.99 63.9583 1332.62 61.0643 1332.62 56.6122C1332.62 54.6086 1332.91 52.3825 1332.33 50.379C1330.88 45.2589 1326.5 41.252 1322.13 37.6901C1319.8 35.6867 1317.76 33.6831 1317.47 31.0118C1317.18 27.8952 1317.47 24.7787 1317.47 21.6621C1317.18 21.8847 1316.6 22.3299 1316.31 22.9978C1311.94 28.7857 1312.52 34.5735 1316.6 40.1388C1318.93 43.478 1320.39 46.5946 1320.09 50.1564C1319.8 54.6086 1315.72 58.6157 1310.77 59.2835C1306.11 59.9513 1303.49 58.1704 1303.78 54.6086C1303.78 53.4956 1304.36 52.3825 1304.65 51.4921C1305.82 48.1529 1302.61 44.5911 1297.95 44.1459C1299.12 45.7042 1301.45 46.8173 1300.28 48.8207C1299.41 50.379 1297.95 51.9373 1296.79 53.273C1296.49 53.4956 1296.2 53.7182 1296.2 53.9408C1293.87 55.9443 1293.29 58.3931 1294.16 61.0643C1294.45 62.6227 1294.75 63.9583 1295.62 65.0714Z" fill="#181E29"/>
<path d="M1340.78 38.3582C1338.16 33.9059 1336.7 29.2311 1338.74 24.3336C1339.32 23.2206 1339.91 22.1075 1340.2 20.7718C1341.07 18.3231 1341.36 15.8744 1338.74 13.8709C1338.45 13.6482 1338.16 13.203 1338.16 12.9804C1338.16 12.9804 1338.16 12.9804 1338.16 12.7578C1345.73 14.9839 1348.36 19.2135 1346.32 25.4466C1345.73 27.2276 1344.57 29.0085 1343.11 30.5667C1340.78 33.9059 1340.49 34.5737 1340.78 38.3582Z" fill="#181E29"/>
</g>
<rect x="-1" y="70" width="1441" height="94" fill="#181E29"/>
<defs>
<clipPath id="clip0_323_1451">
<rect width="434.531" height="71.2346" fill="white" transform="translate(-13.8145 0.363281)"/>
</clipPath>
<clipPath id="clip1_323_1451">
<rect width="434.531" height="71.2346" fill="white" transform="translate(420.716 0.363281)"/>
</clipPath>
<clipPath id="clip2_323_1451">
<rect width="434.531" height="71.2346" fill="white" transform="translate(855.247 0.363281)"/>
</clipPath>
<clipPath id="clip3_323_1451">
<rect width="434.531" height="71.2346" fill="white" transform="translate(1289.78 0.363281)"/>
</clipPath>
</defs>
</svg>
