<svg width="70" height="40" viewBox="0 0 70 40" fill="none" xmlns="http://www.w3.org/2000/svg">
<g clip-path="url(#clip0_352_7249)">
<path d="M70 0H0V40H70V0Z" fill="#006838"/>
<path d="M24.4344 11.9675C24.7051 11.9675 24.9384 12.2028 24.9384 12.4428V23.2193C24.9384 23.5252 24.7704 23.8311 24.5371 24.0334C22.5211 25.7605 19.4318 26.777 16.2024 26.777C8.94578 26.777 4.10645 21.897 4.10645 14.5793C4.10645 7.26166 8.94578 2.37695 16.2024 2.37695C18.6898 2.37695 21.3078 3.12048 23.2584 4.34401C23.5291 4.48048 23.6271 4.74872 23.5618 4.95578L21.8818 9.9346C21.7791 10.1699 21.5458 10.2734 21.2424 10.2075C19.8658 9.46401 18.0831 9.02166 16.4031 9.02166C13.3138 9.02166 11.2278 11.257 11.2278 14.5793C11.2278 17.9017 13.3091 20.2028 16.4031 20.2028C17.6444 20.2028 18.4844 19.9675 18.8578 19.5581V17.5911H15.7684C15.4651 17.5911 15.2644 17.4546 15.2318 17.2193L14.7931 12.5417C14.7604 12.2028 14.9611 11.9675 15.3298 11.9675H24.4344Z" fill="white"/>
<path d="M45.5373 24.2364C45.64 24.4764 45.5047 24.7117 45.234 24.8482C43.2833 26.067 40.6653 26.8152 38.178 26.8152C31.2573 26.8152 26.6187 21.9352 26.6187 14.6176C26.6187 7.29992 31.2573 2.41992 38.178 2.41992C40.6653 2.41992 43.2833 3.16345 45.234 4.38698C45.5047 4.52345 45.6353 4.75875 45.5373 4.99875L43.3207 9.70933C43.1853 10.0152 42.952 10.114 42.6813 9.98227C41.44 9.27169 40.2267 9.03169 38.7847 9.03169C35.7607 9.03169 33.7447 11.267 33.7447 14.6223C33.7447 17.9776 35.7607 20.2129 38.7847 20.2129C40.2313 20.2129 41.44 19.9776 42.6813 19.2623C42.952 19.1258 43.1853 19.2293 43.3207 19.5352L45.5373 24.2458V24.2364Z" fill="white"/>
<path d="M58.0347 2.92188C62.4353 2.92188 65.3613 5.56658 65.3613 9.52893C65.3613 11.9666 64.1853 13.7642 62.37 14.3054C64.4887 14.8466 65.8653 16.8795 65.8653 19.6936C65.8653 23.656 62.944 26.3007 58.576 26.3007H47.922C47.656 26.3007 47.4507 26.0654 47.4507 25.8254V3.43011C47.4507 3.19482 47.6514 2.92188 47.922 2.92188H58.0394H58.0347ZM56.49 12.1031C57.498 12.1031 58.17 11.4913 58.17 10.5454C58.17 9.59952 57.498 8.98776 56.49 8.98776H54.3714V12.1031H56.49ZM57.092 20.2348C58.0673 20.2348 58.7394 19.5901 58.7394 18.6066C58.7394 17.6231 58.0673 16.9783 57.092 16.9783H54.3714V20.2301H57.092V20.2348Z" fill="white"/>
<path d="M16.1093 36.1359C16.1326 36.1782 16.1093 36.2394 16.0579 36.2817C15.6053 36.5688 14.9799 36.7665 14.5039 36.7665C12.9826 36.7665 11.9746 35.7829 11.9746 34.31C11.9746 32.837 12.9826 31.8535 14.5039 31.8535C14.9846 31.8535 15.6053 32.0465 16.0579 32.3382C16.1093 32.3806 16.1326 32.4417 16.1093 32.4841L15.6239 33.5194C15.5913 33.5853 15.5306 33.6135 15.4746 33.5712C15.2646 33.4206 14.9473 33.317 14.6673 33.317C14.0559 33.317 13.6499 33.717 13.6499 34.3147C13.6499 34.9123 14.0513 35.3123 14.6673 35.3123C14.9426 35.3123 15.2646 35.2088 15.4746 35.0582C15.5353 35.0159 15.5913 35.0394 15.6239 35.11L16.1093 36.1453V36.1359Z" fill="white"/>
<path d="M20.4771 36.1547C20.4958 36.2159 20.4771 36.2488 20.4164 36.2817C19.9684 36.5782 19.3244 36.757 18.6758 36.757C17.1871 36.757 16.1978 35.7735 16.1978 34.31C16.1978 32.8465 17.1731 31.8535 18.6338 31.8535C20.0944 31.8535 20.8504 32.7617 20.8504 34.3006C20.8504 34.4276 20.8411 34.5547 20.8178 34.6817C20.8084 34.7476 20.7664 34.7853 20.6918 34.7853H17.9944C17.9944 34.7853 17.9944 35.317 18.6991 35.317C19.1284 35.317 19.6044 35.2135 19.9871 35.0394C20.0478 35.0159 20.0944 35.0488 20.1131 35.1053L20.4724 36.1547H20.4771ZM19.1844 33.8912C19.1844 33.5194 18.9558 33.2747 18.6198 33.2747C18.2418 33.2747 17.9898 33.5194 17.9898 33.8912H19.1844Z" fill="white"/>
<path d="M23.9866 31.9668C24.0519 31.9668 24.1032 32.0186 24.1032 32.0844V33.1856C24.1032 33.2515 24.0519 33.3033 23.9866 33.3033H23.7672C23.4499 33.3033 23.1606 33.4491 23.0532 33.6609V36.4986C23.0532 36.5644 22.9926 36.6256 22.9272 36.6256H21.4479C21.3826 36.6256 21.3219 36.5644 21.3219 36.4986V32.0939C21.3219 32.0327 21.3826 31.9762 21.4479 31.9762H22.3952C22.4606 31.9762 22.5026 32.0374 22.5306 32.1033L22.6566 32.475C22.9086 32.1597 23.3192 31.9668 23.7672 31.9668H23.9866Z" fill="white"/>
<path d="M27.3141 31.966C27.3888 31.966 27.4401 32.0178 27.4401 32.0837L27.3468 32.9072C27.3375 32.9731 27.2861 33.0343 27.2208 33.0343H26.6841V36.4978C26.6841 36.5637 26.6235 36.6249 26.5581 36.6249H25.0788C25.0135 36.6249 24.9528 36.5637 24.9528 36.4978V33.0343H24.4721C24.4115 33.0343 24.3555 32.9825 24.3555 32.9166V32.0931C24.3555 32.0178 24.4161 31.966 24.4721 31.966H24.9528V31.0437C24.9528 30.9825 25.0135 30.9354 25.0788 30.926L26.5581 30.7801C26.6235 30.7707 26.6841 30.8413 26.6841 30.8978V31.966H27.3141Z" fill="white"/>
<path d="M28.4573 36.743C28.014 36.743 27.72 36.4654 27.72 36.0465C27.72 35.6277 28.014 35.3359 28.4573 35.3359C28.9006 35.3359 29.1946 35.623 29.1946 36.0465C29.1946 36.4701 28.9006 36.743 28.4573 36.743Z" fill="white"/>
<path d="M32.6057 36.0179C32.4704 36.2908 32.069 36.4649 31.5977 36.4649C30.3704 36.4649 29.5537 35.5755 29.5537 34.2343C29.5537 32.7332 30.3097 31.8438 31.5977 31.8438C32.2464 31.8438 32.7597 32.0226 32.9744 32.3285L33.1237 32.0932C33.175 32.0179 33.2497 31.9661 33.3197 31.9661H34.211C34.2857 31.9661 34.337 32.0179 34.337 32.0932V36.192C34.337 37.472 33.1844 38.3285 31.7564 38.3285C30.9257 38.3285 30.1837 38.1355 29.773 37.7967C29.7217 37.7543 29.7077 37.6932 29.7217 37.6508L30.151 36.6014C30.1744 36.5402 30.2257 36.5167 30.277 36.5496C30.6364 36.8461 31.1917 37.0249 31.7564 37.0249C32.2837 37.0249 32.6057 36.7426 32.6057 36.2626V36.0179ZM32.6057 33.8155C32.6057 33.8155 32.4797 33.4343 32.027 33.4343C31.607 33.4343 31.3644 33.7308 31.3644 34.239C31.3644 34.7473 31.607 35.0532 32.027 35.0532C32.4797 35.0532 32.6057 34.672 32.6057 34.672V33.8155Z" fill="white"/>
<path d="M38.9433 36.1359C38.9666 36.1782 38.9433 36.2394 38.8919 36.2817C38.4393 36.5688 37.8139 36.7665 37.3379 36.7665C35.8166 36.7665 34.8086 35.7829 34.8086 34.31C34.8086 32.837 35.8166 31.8535 37.3379 31.8535C37.8186 31.8535 38.4393 32.0465 38.8919 32.3382C38.9433 32.3806 38.9666 32.4417 38.9433 32.4841L38.4579 33.5194C38.4253 33.5853 38.3646 33.6135 38.3086 33.5712C38.0986 33.4206 37.7766 33.317 37.5013 33.317C36.8899 33.317 36.4839 33.717 36.4839 34.3147C36.4839 34.9123 36.8853 35.3123 37.5013 35.3123C37.7766 35.3123 38.0986 35.2088 38.3086 35.0582C38.3693 35.0159 38.4253 35.0394 38.4579 35.11L38.9433 36.1453V36.1359Z" fill="white"/>
<path d="M41.1506 32.1691C41.4026 31.9667 41.7806 31.8491 42.1773 31.8491C43.5073 31.8491 44.394 32.8326 44.394 34.2961C44.394 35.7597 43.5026 36.7526 42.1773 36.7526C41.6126 36.7526 41.076 36.5314 40.7586 36.1926L40.6326 36.4985C40.6 36.5738 40.558 36.6256 40.4973 36.6256H39.5453C39.48 36.6256 39.4193 36.5644 39.4193 36.4985V30.602C39.4193 30.5408 39.48 30.4844 39.5453 30.4844H41.0246C41.09 30.4844 41.1506 30.5456 41.1506 30.602V32.1691ZM41.1506 34.8373C41.2533 35.115 41.5193 35.3032 41.8133 35.3032C42.2753 35.3032 42.588 34.8985 42.588 34.2867C42.588 33.675 42.2753 33.3032 41.8133 33.3032C41.5193 33.3032 41.2486 33.4914 41.1506 33.7691V34.8373Z" fill="white"/>
<path d="M45.4906 36.743C45.0473 36.743 44.7533 36.4654 44.7533 36.0465C44.7533 35.6277 45.0473 35.3359 45.4906 35.3359C45.934 35.3359 46.228 35.623 46.228 36.0465C46.228 36.4701 45.934 36.743 45.4906 36.743Z" fill="white"/>
<path d="M50.7265 36.1359C50.7498 36.1782 50.7265 36.2394 50.6751 36.2817C50.2225 36.5688 49.5971 36.7665 49.1211 36.7665C47.5998 36.7665 46.5918 35.7829 46.5918 34.31C46.5918 32.837 47.5998 31.8535 49.1211 31.8535C49.6018 31.8535 50.2225 32.0465 50.6751 32.3382C50.7265 32.3806 50.7498 32.4417 50.7265 32.4841L50.2411 33.5194C50.2085 33.5853 50.1478 33.6135 50.0918 33.5712C49.8818 33.4206 49.5645 33.317 49.2845 33.317C48.6731 33.317 48.2671 33.717 48.2671 34.3147C48.2671 34.9123 48.6685 35.3123 49.2845 35.3123C49.5645 35.3123 49.8818 35.2088 50.0918 35.0582C50.1525 35.0159 50.2085 35.0394 50.2411 35.11L50.7265 36.1453V36.1359Z" fill="white"/>
<path d="M58.0999 31.9668C58.1653 31.9668 58.2073 32.028 58.1839 32.0844L56.8166 36.508C56.7979 36.5692 56.7326 36.6256 56.6673 36.6256H55.3653C55.2999 36.6256 55.2206 36.5644 55.1973 36.508L54.5486 34.2539L53.8999 36.508C53.8766 36.5692 53.7973 36.6256 53.7319 36.6256H52.4299C52.3646 36.6256 52.2946 36.5644 52.2806 36.508L50.9133 32.0844C50.8899 32.0233 50.9319 31.9668 50.9973 31.9668H52.6959C52.7706 31.9668 52.8406 32.0186 52.8546 32.0844L53.2933 33.9386L53.7459 32.0844C53.7646 31.9997 53.8393 31.9668 53.8953 31.9668H55.2066C55.3326 31.9668 55.3419 31.9997 55.3559 32.0844L55.8086 33.9386L56.2473 32.0844C56.2659 32.0186 56.3313 31.9668 56.4059 31.9668H58.1046H58.0999Z" fill="white"/>
</g>
<defs>
<clipPath id="clip0_352_7249">
<rect width="70" height="40" fill="white"/>
</clipPath>
</defs>
</svg>
