<svg width="120" height="48" viewBox="0 0 120 48" fill="none" xmlns="http://www.w3.org/2000/svg">
<path d="M57.4452 21.8909H54.7797L50.3373 15.1869V21.8909H47.6719V11.0156H50.3373L54.7797 17.7196V11.0156H57.4452V21.8909Z" fill="#FFFAF3"/>
<path d="M62.495 13.2539C63.0869 13.2539 63.6794 13.4029 64.1234 13.7008C64.5681 13.9988 65.0122 14.4457 65.16 14.8926V13.4029H67.8255V22.0435H65.16V20.5537C64.8644 21.0006 64.5681 21.4476 64.1234 21.7455C63.6794 22.0435 63.0869 22.1924 62.495 22.1924C61.7541 22.1924 61.1623 22.0435 60.5698 21.5965C59.9773 21.2986 59.5333 20.7027 59.237 20.1068C58.9408 19.5109 58.793 18.617 58.793 17.7232C58.793 16.8293 58.9408 16.0845 59.237 15.3395C59.5333 14.7436 59.9773 14.1477 60.5698 13.8498C61.1623 13.4029 61.7541 13.2539 62.495 13.2539ZM63.3831 15.4885C62.7906 15.4885 62.3466 15.6375 62.0504 16.0844C61.7541 16.3824 61.6063 16.9783 61.6063 17.5742C61.6063 18.1701 61.7541 18.766 62.0504 19.064C62.3466 19.3619 62.7906 19.6599 63.3831 19.6599C63.9756 19.6599 64.4197 19.5109 64.7159 19.064C65.0122 18.617 65.3084 18.1701 65.3084 17.5742C65.3084 16.9783 65.1599 16.3824 64.7159 16.0844C64.4197 15.7865 63.9756 15.4885 63.3831 15.4885Z" fill="#FFFAF3"/>
<path d="M74.6267 19.6479V21.8825H73.4424C72.4058 21.8825 71.6655 21.5845 71.0731 21.1376C70.4806 20.6907 70.1843 19.7968 70.1843 18.605V15.4765H69V13.2419H70.1843V11.1562H72.8499V13.2419H74.6267V15.4765H72.8499V18.754C72.8499 19.052 72.8499 19.3499 72.9977 19.4989C73.1461 19.6479 73.4424 19.6479 73.7386 19.6479H74.6267Z" fill="#FFFAF3"/>
<path d="M75.8203 10.8647C75.8203 10.4178 75.9681 10.1199 76.2643 9.82194C76.5606 9.52396 77.0046 9.375 77.4487 9.375C77.8934 9.375 78.3374 9.52396 78.6337 9.82194C78.9299 10.1199 79.0777 10.4178 79.0777 10.8647C79.0777 11.3117 78.9299 11.6096 78.6337 11.9076C78.3374 12.2055 77.8934 12.3545 77.4487 12.3545C77.0046 12.3545 76.5606 12.2055 76.2643 11.9076C75.9681 11.6096 75.8203 11.3117 75.8203 10.8647ZM78.7815 13.3973V22.0379H76.1159V13.3973H78.7815Z" fill="#FFFAF3"/>
<path d="M84.5589 13.2539C85.4477 13.2539 86.1879 13.4029 86.7804 13.8498C87.5207 14.1477 87.9648 14.7436 88.4088 15.3395C88.8535 15.9354 89.0013 16.8293 89.0013 17.7232C89.0013 18.617 88.8535 19.3619 88.4088 20.1068C87.9648 20.7027 87.5207 21.2986 86.7804 21.5965C86.0401 21.8945 85.2992 22.1924 84.5589 22.1924C83.6708 22.1924 82.9299 22.0435 82.1896 21.5965C81.4493 21.2986 81.0053 20.7027 80.5606 20.1068C80.1165 19.5109 79.9688 18.617 79.9688 17.7232C79.9688 16.8293 80.1165 16.0845 80.5606 15.3395C81.0053 14.7436 81.4493 14.1477 82.1896 13.8498C82.9299 13.4029 83.8186 13.2539 84.5589 13.2539ZM84.5589 15.4885C84.1149 15.4885 83.6708 15.6375 83.2261 16.0844C82.9299 16.3824 82.7821 16.9783 82.7821 17.7232C82.7821 18.4681 82.9299 18.915 83.2261 19.3619C83.5224 19.6599 83.9664 19.9578 84.5589 19.9578C85.003 19.9578 85.4476 19.8088 85.8917 19.3619C86.1879 19.064 86.3357 18.4681 86.3357 17.7232C86.3357 16.9783 86.1879 16.5313 85.8917 16.0844C85.5954 15.7865 85.1514 15.4885 84.5589 15.4885Z" fill="#FFFAF3"/>
<path d="M95.9483 13.2539C96.9848 13.2539 97.7251 13.5518 98.317 14.2967C98.9094 14.8926 99.2057 15.7865 99.2057 16.9783V22.0435H96.5401V17.4252C96.5401 16.8293 96.3923 16.3824 96.0961 16.0844C95.7999 15.7865 95.3558 15.6375 94.9111 15.6375C94.3193 15.6375 93.8746 15.7865 93.579 16.0844C93.2828 16.3824 93.1343 16.9783 93.1343 17.5742V22.1924H90.4688V13.5518H93.1343V15.1906C93.4305 14.7436 93.7268 14.2967 94.1708 13.9988C94.7633 13.4029 95.2074 13.2539 95.9483 13.2539Z" fill="#FFFAF3"/>
<path d="M104.249 13.2539C104.841 13.2539 105.433 13.4029 105.878 13.7008C106.322 13.9988 106.766 14.4457 106.915 14.8926V13.4029H109.58V22.0435H106.915V20.5537C106.618 21.0006 106.322 21.4476 105.878 21.7455C105.433 22.0435 104.841 22.1924 104.249 22.1924C103.509 22.1924 102.916 22.0435 102.324 21.5965C101.732 21.2986 101.287 20.7027 100.991 20.1068C100.695 19.5109 100.547 18.617 100.547 17.7232C100.547 16.8293 100.695 16.0845 100.991 15.3395C101.287 14.7436 101.732 14.1477 102.324 13.8498C102.916 13.4029 103.509 13.2539 104.249 13.2539ZM104.989 15.4885C104.397 15.4885 103.953 15.6375 103.656 16.0844C103.36 16.3824 103.212 16.9783 103.212 17.5742C103.212 18.1701 103.36 18.766 103.656 19.064C103.953 19.3619 104.397 19.6599 104.989 19.6599C105.582 19.6599 106.026 19.5109 106.322 19.064C106.618 18.617 106.915 18.1701 106.915 17.5742C106.915 16.9783 106.766 16.3824 106.322 16.0844C106.026 15.7865 105.582 15.4885 104.989 15.4885Z" fill="#FFFAF3"/>
<path d="M114.016 10.5586V22.0297H111.352V10.5586H114.016Z" fill="#FFFAF3"/>
<path d="M51.6732 28.7344C52.7098 28.7344 53.7463 29.0323 54.3388 29.6282C55.0791 30.2241 55.5231 30.969 55.6715 32.0118H53.7463C53.5985 31.4159 53.45 31.118 53.006 30.82C52.562 30.5221 52.1173 30.3731 51.5254 30.3731C50.7845 30.3731 50.3405 30.671 49.8963 31.118C49.452 31.5649 49.1559 32.3098 49.1559 33.2036C49.1559 34.0975 49.452 34.8423 49.8963 35.2893C50.3405 35.7362 50.9329 36.0341 51.5254 36.0341C52.1173 36.0341 52.562 35.8852 53.006 35.5873C53.45 35.2893 53.5985 34.8423 53.7463 34.3955H55.6715C55.5231 35.4382 55.0791 36.1832 54.3388 36.7791C53.5985 37.375 52.7098 37.6729 51.6732 37.6729C50.7845 37.6729 50.0443 37.5239 49.452 37.077C48.8597 36.7791 48.2674 36.1832 47.9712 35.5873C47.6751 34.9914 47.3789 34.0975 47.3789 33.2036C47.3789 32.3098 47.527 31.5649 47.9712 30.82C48.2674 30.2241 48.8597 29.6282 49.452 29.3303C50.0443 28.8833 50.7845 28.7344 51.6732 28.7344Z" fill="#FFFAF3"/>
<path d="M60.8661 28.7344C61.6064 28.7344 62.3467 28.8833 62.7908 29.3303C63.3833 29.7772 63.6795 30.2241 63.9757 30.82V28.8833H65.7526V37.375H63.9757V35.4382C63.6795 36.0341 63.3833 36.63 62.7908 36.928C62.1989 37.375 61.6064 37.5239 60.8661 37.5239C60.1259 37.5239 59.3849 37.375 58.9409 36.928C58.3484 36.63 57.9043 36.0341 57.6081 35.4382C57.3119 34.8423 57.1641 33.9485 57.1641 33.0546C57.1641 32.1608 57.3119 31.4159 57.6081 30.671C57.9043 30.0751 58.3484 29.4792 58.9409 29.1813C59.3849 28.8833 60.1259 28.7344 60.8661 28.7344ZM61.4586 30.3731C60.7177 30.3731 59.9774 30.671 59.5334 31.118C59.0893 31.5649 58.7931 32.3098 58.7931 33.2036C58.7931 34.0975 59.0893 34.6934 59.5334 35.2893C59.9774 35.7362 60.5699 36.0341 61.4586 36.0341C61.9027 36.0341 62.3467 35.8852 62.7908 35.7362C63.2355 35.4382 63.5317 35.1403 63.6795 34.6934C63.8273 34.2464 63.9757 33.7996 63.9757 33.2036C63.9757 32.6077 63.8273 32.1608 63.6795 31.7139C63.3832 31.2669 63.087 30.969 62.7908 30.671C62.3467 30.3731 61.9027 30.3731 61.4586 30.3731Z" fill="#FFFAF3"/>
<path d="M70.6213 28.7344C71.6578 28.7344 72.3988 29.0323 72.9906 29.4792C73.5831 29.9262 74.0272 30.671 74.1756 31.5649H72.5466C72.5466 31.118 72.2503 30.671 71.9541 30.5221C71.6578 30.2241 71.2138 30.0751 70.6213 30.0751C70.1773 30.0751 69.881 30.2241 69.5848 30.3731C69.2892 30.5221 69.2892 30.82 69.2892 31.2669C69.2892 31.5649 69.437 31.7139 69.5848 31.8628C69.7332 32.0118 70.0295 32.1608 70.1773 32.3098C70.4735 32.4587 70.7698 32.4587 71.3623 32.6078C71.9541 32.7567 72.5466 32.9057 72.8428 33.0546C73.2869 33.2037 73.5831 33.5016 73.8794 33.7996C74.1756 34.0975 74.3234 34.5444 74.3234 35.1403C74.3234 35.8852 74.0272 36.4811 73.4353 36.928C72.8428 37.375 72.1025 37.5239 71.2138 37.5239C70.1773 37.5239 69.2892 37.226 68.6967 36.7791C68.1042 36.3321 67.6602 35.5873 67.5117 34.6934H69.2892C69.2892 35.1403 69.5848 35.5873 69.881 35.8852C70.1773 36.1832 70.7698 36.3321 71.3623 36.3321C71.8063 36.3321 72.1025 36.1832 72.3988 36.0341C72.695 35.7362 72.8428 35.5873 72.8428 35.1403C72.8428 34.8423 72.695 34.5444 72.5466 34.3955C72.3988 34.2464 72.1025 34.0975 71.8063 33.9485C71.51 33.7996 71.2138 33.7996 70.6213 33.6505C70.0295 33.5016 69.437 33.3526 69.1407 33.2036C68.6967 33.0546 68.4005 32.7567 68.1042 32.4587C67.808 32.1608 67.6602 31.7139 67.6602 31.118C67.6602 30.3731 67.9564 29.7772 68.4005 29.3303C68.9929 29.0323 69.7332 28.7344 70.6213 28.7344Z" fill="#FFFAF3"/>
<path d="M75.8203 26.3553C75.8203 26.0574 75.9681 25.7594 76.1159 25.6105C76.2644 25.4615 76.5606 25.3125 77.0046 25.3125C77.3009 25.3125 77.5971 25.4615 77.8934 25.6105C78.0412 25.7594 78.1896 26.0574 78.1896 26.3553C78.1896 26.6533 78.0412 26.9512 77.8934 27.1003C77.7449 27.2492 77.4487 27.3982 77.0046 27.3982C76.7084 27.3982 76.4121 27.2492 76.1159 27.1003C75.9681 26.9512 75.8203 26.6533 75.8203 26.3553ZM77.8934 28.888V37.3795H76.1159V28.888H77.8934Z" fill="#FFFAF3"/>
<path d="M84.6885 28.7344C85.725 28.7344 86.4653 29.0323 87.0578 29.6282C87.6496 30.2241 87.9459 31.118 87.9459 32.3098V37.2259H86.169V32.4587C86.169 31.7139 86.0213 31.118 85.5766 30.671C85.2803 30.3731 84.6885 30.2241 84.096 30.2241C83.3557 30.2241 82.7632 30.5221 82.467 30.969C82.0229 31.4159 81.8745 32.0118 81.8745 32.9057V37.375H80.0977V28.8833H81.7267V30.82C82.0229 30.2241 82.3192 29.6282 82.911 29.3303C83.5035 29.0323 83.9475 28.7344 84.6885 28.7344Z" fill="#FFFAF3"/>
<path d="M94.025 28.7344C94.9138 28.7344 95.6541 28.8833 96.2459 29.3303C96.8384 29.6282 97.4309 30.2241 97.7271 30.82C98.1712 31.4159 98.3196 32.3098 98.3196 33.2036C98.3196 34.0975 98.1712 34.8423 97.7271 35.5873C97.2831 36.1832 96.8384 36.7791 96.2459 37.077C95.6541 37.375 94.9138 37.6729 94.025 37.6729C93.1363 37.6729 92.396 37.5239 91.8035 37.077C91.2117 36.7791 90.6192 36.1832 90.323 35.5873C89.8789 34.9914 89.7305 34.0975 89.7305 33.2036C89.7305 32.3098 89.8789 31.5649 90.323 30.82C90.767 30.2241 91.2117 29.6282 91.8035 29.3303C92.396 28.8833 93.1363 28.7344 94.025 28.7344ZM94.025 30.3731C93.581 30.3731 93.1363 30.5221 92.8401 30.671C92.396 30.82 92.0998 31.2669 91.952 31.5649C91.6557 32.0118 91.6557 32.4587 91.6557 33.0546C91.6557 33.6505 91.8035 34.2464 91.952 34.6934C92.2482 35.1403 92.5445 35.4382 92.8401 35.5873C93.2848 35.7362 93.581 35.8852 94.025 35.8852C94.4691 35.8852 94.9138 35.7362 95.2094 35.5873C95.6541 35.4382 95.9503 35.1403 96.0981 34.6934C96.3944 34.2464 96.3944 33.7996 96.3944 33.0546C96.3944 32.4587 96.2459 31.8628 96.0981 31.5649C95.8019 31.118 95.5056 30.82 95.2094 30.671C94.7653 30.3731 94.4691 30.3731 94.025 30.3731Z" fill="#FFFAF3"/>
<path d="M21.1753 47.3627C19.9907 47.3627 18.658 47.0647 17.6214 46.4688L3.5539 38.4241C1.33271 37.2323 0 34.8487 0 32.3162V16.2268C0 13.6942 1.33271 11.3106 3.5539 10.1188L17.6214 1.9251C19.8426 0.7333 22.508 0.7333 24.7292 1.9251L38.7967 9.9698C41.0179 11.1616 42.3506 13.5452 42.3506 16.0778V32.1671C42.3506 34.6998 41.0179 37.0834 38.7967 38.2752L24.7292 46.3199C23.5446 47.0647 22.36 47.3627 21.1753 47.3627ZM21.1753 1.77614C20.2868 1.77614 19.3984 2.07406 18.658 2.37204L3.5539 11.0126C2.07313 11.9065 1.03653 13.5452 1.03653 15.3329V32.6141C1.03653 34.4018 1.925 36.0405 3.5539 36.9344L18.658 45.575C20.1388 46.4688 22.2119 46.4688 23.6927 45.575L38.7967 37.2323C40.2775 36.3385 41.3141 34.6998 41.3141 32.9121V15.4819C41.3141 13.6942 40.4256 12.0554 38.7967 11.1616L23.6927 2.521C22.9523 2.07406 22.0638 1.77614 21.1753 1.77614Z" fill="#FEC882"/>
<path fill-rule="evenodd" clip-rule="evenodd" d="M24.284 6.39541L35.6861 12.9503C37.463 13.9932 38.4996 15.9299 38.4996 17.8666V30.8274C38.4996 32.9131 37.463 34.8498 35.6861 35.7436L24.284 42.2986C23.3955 42.8945 22.3589 43.0435 21.4705 43.0435C20.4339 43.0435 19.3973 42.7455 18.657 42.2986L7.25489 35.7436C5.47794 34.7008 4.44141 32.7641 4.44141 30.8274V17.8666C4.44141 15.7809 5.47794 13.8442 7.25489 12.9503L18.657 6.39541C20.2859 5.35257 22.5071 5.35257 24.284 6.39541ZM25.0244 33.2111H29.3187V15.185H25.0244V26.3582L17.7685 15.185H13.4742V33.2111H17.7685V22.1868L25.0244 33.2111Z" fill="#FEC882"/>
</svg>
