<svg width="144" height="80" viewBox="0 0 144 80" fill="none" xmlns="http://www.w3.org/2000/svg">
<rect width="144" height="80" rx="6" fill="white"/>
<g clip-path="url(#clip0_352_7281)">
<path d="M100.774 62.7599V62.8817H100.886C100.91 62.8817 100.932 62.8757 100.947 62.8663C100.961 62.8568 100.969 62.8403 100.969 62.8202C100.969 62.8001 100.961 62.7848 100.947 62.7753C100.932 62.7647 100.91 62.7599 100.886 62.7599H100.774ZM100.887 62.6748C100.945 62.6748 100.989 62.6878 101.021 62.7138C101.053 62.7398 101.068 62.7753 101.068 62.8202C101.068 62.858 101.057 62.8887 101.031 62.9135C101.006 62.9372 100.971 62.9525 100.923 62.9585L101.072 63.1298H100.956L100.818 62.9597H100.774V63.1298H100.677V62.6748H100.887ZM100.857 63.287C100.91 63.287 100.96 63.2764 101.005 63.2563C101.051 63.2362 101.091 63.209 101.125 63.1748C101.159 63.1405 101.186 63.1003 101.206 63.053C101.225 63.0069 101.236 62.9573 101.236 62.9041C101.236 62.8509 101.225 62.8013 101.206 62.7552C101.186 62.7091 101.159 62.6677 101.125 62.6334C101.091 62.5991 101.051 62.572 101.005 62.5519C100.96 62.533 100.91 62.5235 100.857 62.5235C100.804 62.5235 100.754 62.533 100.707 62.5519C100.66 62.572 100.619 62.5991 100.585 62.6334C100.551 62.6677 100.524 62.7091 100.505 62.7552C100.485 62.8013 100.475 62.8509 100.475 62.9041C100.475 62.9573 100.485 63.0069 100.505 63.053C100.524 63.1003 100.551 63.1405 100.585 63.1748C100.619 63.209 100.66 63.2362 100.707 63.2563C100.754 63.2764 100.804 63.287 100.857 63.287ZM100.857 62.4136C100.927 62.4136 100.991 62.4266 101.052 62.4526C101.112 62.4774 101.164 62.5129 101.21 62.5578C101.255 62.6015 101.29 62.6535 101.316 62.7138C101.342 62.7729 101.355 62.8367 101.355 62.9041C101.355 62.9715 101.342 63.0353 101.316 63.0944C101.29 63.1535 101.255 63.2055 101.21 63.2504C101.164 63.2942 101.112 63.3296 101.052 63.3556C100.991 63.3816 100.927 63.3946 100.857 63.3946C100.787 63.3946 100.722 63.3816 100.66 63.3556C100.599 63.3296 100.546 63.2942 100.501 63.2504C100.456 63.2055 100.421 63.1535 100.395 63.0944C100.369 63.0353 100.356 62.9715 100.356 62.9041C100.356 62.8367 100.369 62.7729 100.395 62.7138C100.421 62.6535 100.456 62.6015 100.501 62.5578C100.546 62.5129 100.599 62.4774 100.66 62.4526C100.722 62.4266 100.787 62.4136 100.857 62.4136ZM54.9128 60.6608C54.9128 59.7933 55.48 59.0806 56.4069 59.0806C57.2925 59.0806 57.8904 59.7626 57.8904 60.6608C57.8904 61.5591 57.2925 62.2411 56.4069 62.2411C55.48 62.2411 54.9128 61.5284 54.9128 60.6608ZM58.8998 60.6608V58.193H57.829V58.7922C57.4894 58.3478 56.9741 58.0689 56.2736 58.0689C54.8927 58.0689 53.8101 59.1539 53.8101 60.6608C53.8101 62.1689 54.8927 63.2528 56.2736 63.2528C56.9741 63.2528 57.4894 62.9738 57.829 62.5295V63.1286H58.8998V60.6608ZM95.0837 60.6608C95.0837 59.7933 95.6509 59.0806 96.5778 59.0806C97.4646 59.0806 98.0613 59.7626 98.0613 60.6608C98.0613 61.5591 97.4646 62.2411 96.5778 62.2411C95.6509 62.2411 95.0837 61.5284 95.0837 60.6608ZM99.0719 60.6608V56.2109H98V58.7922C97.6603 58.3478 97.145 58.0689 96.4445 58.0689C95.0637 58.0689 93.9811 59.1539 93.9811 60.6608C93.9811 62.1689 95.0637 63.2528 96.4445 63.2528C97.145 63.2528 97.6603 62.9738 98 62.5295V63.1286H99.0719V60.6608ZM72.1911 59.0298C72.8809 59.0298 73.3243 59.4635 73.4375 60.2271H70.8821C70.9965 59.5144 71.4281 59.0298 72.1911 59.0298ZM72.2123 58.0689C70.7689 58.0689 69.7594 59.122 69.7594 60.6608C69.7594 62.2304 70.8102 63.2528 72.2842 63.2528C73.026 63.2528 73.7052 63.0672 74.3031 62.5613L73.7783 61.7659C73.3656 62.0957 72.8397 62.2824 72.3455 62.2824C71.6556 62.2824 71.0271 61.9621 70.8726 61.0733H74.5295C74.5401 60.9398 74.5507 60.8051 74.5507 60.6608C74.5401 59.122 73.592 58.0689 72.2123 58.0689ZM85.1415 60.6608C85.1415 59.7933 85.7087 59.0806 86.6356 59.0806C87.5212 59.0806 88.1191 59.7626 88.1191 60.6608C88.1191 61.5591 87.5212 62.2411 86.6356 62.2411C85.7087 62.2411 85.1415 61.5284 85.1415 60.6608ZM89.1285 60.6608V58.193H88.0578V58.7922C87.717 58.3478 87.2028 58.0689 86.5023 58.0689C85.1214 58.0689 84.0389 59.1539 84.0389 60.6608C84.0389 62.1689 85.1214 63.2528 86.5023 63.2528C87.2028 63.2528 87.717 62.9738 88.0578 62.5295V63.1286H89.1285V60.6608ZM79.0944 60.6608C79.0944 62.1583 80.1345 63.2528 81.7217 63.2528C82.4634 63.2528 82.9575 63.0873 83.4929 62.6642L82.9788 61.7966C82.5766 62.0862 82.1544 62.2411 81.6898 62.2411C80.8349 62.2304 80.2064 61.6111 80.2064 60.6608C80.2064 59.7106 80.8349 59.0912 81.6898 59.0806C82.1544 59.0806 82.5766 59.2355 82.9788 59.525L83.4929 58.6575C82.9575 58.2344 82.4634 58.0689 81.7217 58.0689C80.1345 58.0689 79.0944 59.1634 79.0944 60.6608ZM92.8998 58.0689C92.2818 58.0689 91.8797 58.3585 91.6014 58.7922V58.193H90.54V63.1286H91.612V60.3618C91.612 59.5451 91.9623 59.0912 92.6627 59.0912C92.8797 59.0912 93.1061 59.122 93.3325 59.2154L93.6627 58.2036C93.4257 58.1102 93.1167 58.0689 92.8998 58.0689ZM64.1958 58.5854C63.6804 58.245 62.9706 58.0689 62.1875 58.0689C60.9399 58.0689 60.1368 58.6682 60.1368 59.6491C60.1368 60.454 60.7347 60.9504 61.8361 61.1052L62.342 61.1774C62.9292 61.2601 63.2064 61.4149 63.2064 61.6938C63.2064 62.0756 62.8149 62.2931 62.0838 62.2931C61.342 62.2931 60.8066 62.0555 60.4458 61.7765L59.9411 62.6122C60.5283 63.0459 61.2701 63.2528 62.0731 63.2528C63.4953 63.2528 64.3196 62.5814 64.3196 61.6418C64.3196 60.7743 63.671 60.3204 62.5991 60.1656L62.0943 60.0923C61.6309 60.0309 61.2594 59.9387 61.2594 59.6078C61.2594 59.2461 61.6097 59.0298 62.1969 59.0298C62.8255 59.0298 63.434 59.2673 63.7323 59.4529L64.1958 58.5854ZM78.0118 58.0689C77.3939 58.0689 76.9917 58.3585 76.7146 58.7922V58.193H75.6533V63.1286H76.7241V60.3618C76.7241 59.5451 77.0743 59.0912 77.7747 59.0912C77.9917 59.0912 78.2181 59.122 78.4446 59.2154L78.7748 58.2036C78.5377 58.1102 78.2288 58.0689 78.0118 58.0689ZM68.8738 58.193H67.1226V56.6955H66.0401V58.193H65.0413V59.174H66.0401V61.4255C66.0401 62.5708 66.4835 63.2528 67.75 63.2528C68.2146 63.2528 68.75 63.1086 69.0897 62.871L68.7807 61.9515C68.4611 62.1371 68.1108 62.2304 67.8326 62.2304C67.2972 62.2304 67.1226 61.8995 67.1226 61.4042V59.174H68.8738V58.193ZM52.8633 63.1286V60.0309C52.8633 58.8644 52.1215 58.0796 50.9257 58.0689C50.2972 58.0583 49.6486 58.2545 49.1946 58.9471C48.855 58.3998 48.3196 58.0689 47.5673 58.0689C47.0413 58.0689 46.5272 58.2237 46.125 58.8017V58.193H45.0531V63.1286H46.1345V60.3926C46.1345 59.5357 46.6085 59.0806 47.3408 59.0806C48.0519 59.0806 48.4116 59.5451 48.4116 60.3819V63.1286H49.4941V60.3926C49.4941 59.5357 49.9882 59.0806 50.6994 59.0806C51.4305 59.0806 51.7807 59.5451 51.7807 60.3819V63.1286H52.8633Z" fill="#231F20"/>
<path d="M101.434 46.7132V45.9922H101.246L101.029 46.4874L100.814 45.9922H100.625V46.7132H100.758V46.1695L100.961 46.6387H101.099L101.302 46.1683V46.7132H101.434ZM100.244 46.7132V46.1151H100.485V45.9934H99.8713V46.1151H100.112V46.7132H100.244Z" fill="#F79410"/>
<path d="M80.1132 49.8151H63.8849V20.584H80.1132V49.8151Z" fill="#FF5F00"/>
<path d="M64.9245 35.1958C64.9245 29.2661 67.6946 23.9841 72.0083 20.5802C68.8538 18.0911 64.8726 16.6055 60.546 16.6055C50.303 16.6055 42 24.9285 42 35.1958C42 45.4631 50.303 53.7861 60.546 53.7861C64.8726 53.7861 68.8538 52.3005 72.0083 49.8113C67.6946 46.4074 64.9245 41.1255 64.9245 35.1958Z" fill="#EB001B"/>
<path d="M102 35.1958C102 45.4631 93.6969 53.7861 83.4541 53.7861C79.1274 53.7861 75.1463 52.3005 71.9906 49.8113C76.3055 46.4074 79.0755 41.1255 79.0755 35.1958C79.0755 29.2661 76.3055 23.9841 71.9906 20.5802C75.1463 18.0911 79.1274 16.6055 83.4541 16.6055C93.6969 16.6055 102 24.9285 102 35.1958Z" fill="#F79E1B"/>
</g>
<defs>
<clipPath id="clip0_352_7281">
<rect width="60" height="48" fill="white" transform="translate(42 16)"/>
</clipPath>
</defs>
</svg>
