<svg width="144" height="80" viewBox="0 0 144 80" fill="none" xmlns="http://www.w3.org/2000/svg">
<rect width="144" height="80" rx="6" fill="white"/>
<g clip-path="url(#clip0_352_7275)">
<path fill-rule="evenodd" clip-rule="evenodd" d="M56.9827 55.4879L62.2007 24.5398H70.6574L65.4394 55.4879H56.9827ZM95.8477 25.2595C94.2283 24.7197 91.7093 24 88.2906 24C80.0138 24 74.256 28.1384 74.0761 34.2561C74.0761 38.5744 78.3944 41.0934 81.4532 42.5329C84.8719 44.1523 85.9515 45.0519 85.9515 46.4914C85.9515 48.4706 83.2526 49.3702 80.9135 49.3702C77.4948 49.3702 75.6955 49.0104 72.9965 47.7509L71.737 47.391L70.6574 54.2284C72.6366 55.128 76.2353 55.8478 80.0138 55.8478C88.8304 55.8478 94.5882 51.7093 94.7681 45.4118C94.7681 41.8132 92.429 39.1142 87.5709 36.955C84.692 35.5156 82.8927 34.6159 82.8927 33.1765C82.8927 31.917 84.5121 30.4775 87.7508 30.4775C90.4498 30.4775 92.429 31.0173 94.0484 31.5571L94.7681 31.917L95.8477 25.2595ZM117.619 24.5398H110.962C108.983 24.5398 107.543 25.0796 106.644 27.0588L94.0484 55.4879H102.865C102.865 55.4879 104.304 51.7093 104.664 50.8097H115.46C115.82 51.8893 116.54 55.4879 116.54 55.4879H124.277L117.619 24.5398ZM107.183 44.5121C107.903 42.7128 110.422 35.8754 110.422 35.8754C110.422 35.8754 111.142 34.0761 111.682 32.8166L112.221 35.5156C112.221 35.5156 113.841 42.8927 114.201 44.5121H107.183ZM49.7854 24.5398L41.6885 45.5917L40.7889 41.2734C39.1695 36.4152 34.4913 31.0173 29.0934 28.3183L36.6505 55.4879H45.4671L58.782 24.5398H49.7854Z" fill="#01549A"/>
<path fill-rule="evenodd" clip-rule="evenodd" d="M33.956 24.5391H20.4612L20.2812 25.2588C30.8972 27.7778 37.9145 33.8955 40.7934 41.2726L37.7345 27.238C37.3747 25.2588 35.7553 24.5391 33.956 24.5391Z" fill="#F7A707"/>
</g>
<defs>
<clipPath id="clip0_352_7275">
<rect width="104" height="32" fill="white" transform="translate(20 24)"/>
</clipPath>
</defs>
</svg>
