<svg width="24" height="24" viewBox="0 0 24 24" fill="none" xmlns="http://www.w3.org/2000/svg">
<g clip-path="url(#clip0_352_7205)">
<path d="M23.878 20.7459L22.7345 19.0306L23.878 17.3153C24.1981 16.842 23.8485 16.2146 23.2908 16.2183H19.7334V14.1092C19.7334 13.7209 19.4187 13.4061 19.0304 13.4061H16.473L16.0985 11.2225L19.1771 8.22167C19.3687 8.03489 19.4377 7.75549 19.355 7.50094C19.2723 7.24643 19.0523 7.06091 18.7874 7.02243L14.5329 6.40421L12.6303 2.54899C12.5118 2.30901 12.2674 2.1571 11.9998 2.1571C11.7322 2.1571 11.4878 2.30901 11.3693 2.54899L9.46667 6.40421L5.21217 7.02243C4.94735 7.06091 4.72729 7.24643 4.64461 7.50094C4.56193 7.75545 4.63092 8.03484 4.82253 8.22167L7.90114 11.2225L7.52665 13.4061H4.96923C4.58096 13.4061 4.26617 13.7209 4.26617 14.1092V16.2183H0.708728C0.153637 16.213 -0.19841 16.8423 0.121437 17.3153L1.26499 19.0306L0.121483 20.7459C-0.0094267 20.9394 0.000181805 21.1454 0.000884867 21.1407C0.00177541 21.534 0.323075 21.8429 0.703244 21.8429C1.41146 21.8429 7.24664 21.8428 7.78139 21.8428C8.16967 21.8428 8.48445 21.528 8.48445 21.1397V19.0305H15.5151V21.1397C15.5151 21.528 15.8299 21.8428 16.2181 21.8428C16.6668 21.8428 23.7468 21.8428 23.2963 21.8429C23.8625 21.8428 24.1899 21.207 23.878 20.7459ZM21.9819 17.6245L21.3045 18.6406C21.1471 18.8768 21.1471 19.1844 21.3045 19.4206L21.9819 20.4367H19.0285C19.4708 19.8487 19.7334 19.1182 19.7334 18.3275V17.6244H21.9819V17.6245ZM9.27765 11.5145L11.2967 10.8585V12.9814L8.80102 14.2935L9.27765 11.5145ZM12.7028 10.8585L14.7219 11.5145L15.1985 14.2935L12.7028 12.9814V10.8585ZM15.1564 10.1772L13.2849 9.56906L14.5946 7.83405L17.1754 8.20906L15.1564 10.1772ZM11.9998 4.44876L13.3394 7.16309L12.0897 8.81848L10.7519 6.97716L11.9998 4.44876ZM6.8241 8.20911L9.61436 7.80368L10.8622 9.52116L8.84315 10.1772L6.8241 8.20911ZM5.6722 14.8122H7.2854L7.17432 15.4598C7.12909 15.7236 7.2375 15.9902 7.454 16.1475C7.67054 16.3048 7.95758 16.3255 8.19441 16.201L11.9998 14.2004L15.8051 16.201C16.0429 16.3261 16.3299 16.3042 16.5455 16.1475C16.762 15.9902 16.8705 15.7236 16.8252 15.4598L16.7141 14.8122H18.3273V17.6245H5.6722V14.8122ZM4.26608 18.3275C4.26608 19.1183 4.5287 19.8488 4.97106 20.4367H2.01759L2.69502 19.4206C2.85246 19.1844 2.85246 18.8768 2.69502 18.6406L2.01759 17.6245H4.26608V18.3275ZM7.07833 20.3158C6.48007 20.1036 6.00531 19.6288 5.79313 19.0306H7.07833V20.3158ZM18.2064 19.0306C17.9942 19.6288 17.5195 20.1036 16.9212 20.3158V19.0306H18.2064Z" fill="#94897A"/>
<path d="M7.4973 4.88982C7.72613 5.20479 8.16601 5.27304 8.47934 5.04534C8.79347 4.81712 8.86312 4.37743 8.63486 4.0633L7.46046 2.44692C7.2322 2.13274 6.79255 2.06314 6.47843 2.2914C6.1643 2.51961 6.09465 2.95931 6.32291 3.27344L7.4973 4.88982Z" fill="#94897A"/>
<path d="M15.7938 5.07879C16.1049 5.31366 16.5455 5.24996 16.7785 4.94127L18.0297 3.28373C18.2637 2.97382 18.2021 2.53295 17.8922 2.29902C17.5823 2.06509 17.1415 2.12663 16.9075 2.43654L15.6563 4.09408C15.4223 4.40399 15.4839 4.84485 15.7938 5.07879Z" fill="#94897A"/>
</g>
<defs>
<clipPath id="clip0_352_7205">
<rect width="24" height="24" fill="white"/>
</clipPath>
</defs>
</svg>
