<svg width="24" height="24" viewBox="0 0 24 24" fill="none" xmlns="http://www.w3.org/2000/svg">
<path d="M23.794 7.26645L18.1456 1.61802C18.0138 1.48616 17.8349 1.41205 17.6484 1.41205H6.35155C6.16504 1.41205 5.98621 1.48611 5.8544 1.61802L0.205961 7.26645C-0.0473514 7.51977 -0.0697108 7.92313 0.154117 8.20288L11.451 22.324C11.5844 22.4908 11.7864 22.5879 12 22.5879C12.2136 22.5879 12.4156 22.4908 12.5491 22.324L23.846 8.20288C24.0697 7.92313 24.0473 7.51981 23.794 7.26645ZM17.3572 2.81835L21.5994 7.06053H16.813L15.1872 2.81835H17.3572ZM10.3188 2.81835H13.6812L15.3071 7.06053H8.69291L10.3188 2.81835ZM6.64279 2.81835H8.81273L7.18691 7.06053H2.4006L6.64279 2.81835ZM2.16604 8.46678H7.15063L10.248 18.5693L2.16604 8.46678ZM12 19.4861L8.62148 8.46678H15.3785L12 19.4861ZM13.7519 18.5692L16.8494 8.46674H21.8339L13.7519 18.5692Z" fill="#94897A"/>
</svg>
