<svg width="24" height="24" viewBox="0 0 24 24" fill="none" xmlns="http://www.w3.org/2000/svg">
<g clip-path="url(#clip0_352_7189)">
<path d="M18.8429 5.61384H17.6869C18.1258 5.02852 18.3862 4.302 18.3862 3.51577V3.50433C18.3862 1.57205 16.8141 0 14.8818 0H14.8704C13.7055 0 12.6721 0.571875 12.0346 1.44914C11.3971 0.571875 10.3637 0 9.1988 0H9.18737C7.25508 0 5.68304 1.57205 5.68304 3.50433V3.51577C5.68304 4.302 5.94338 5.02852 6.38227 5.61384H5.1571C3.8483 5.61384 2.78354 6.67866 2.78354 7.98745V21.6265C2.78354 22.9353 3.8483 24 5.1571 24H18.8429C20.1517 24 21.2164 22.9353 21.2164 21.6265V7.98741C21.2164 6.67866 20.1517 5.61384 18.8429 5.61384ZM12.966 7.02009V12.4347H11.034V7.02009H12.966ZM19.7868 13.8409V15.7729H4.21318V13.8409H19.7868ZM19.8102 7.98741V12.4346H14.3723V7.02009H18.8429C19.3763 7.02009 19.8102 7.45406 19.8102 7.98741ZM12.7724 3.50433C12.7724 2.34745 13.7136 1.40625 14.8704 1.40625H14.8819C16.0388 1.40625 16.98 2.34745 16.98 3.50433V3.51577C16.98 4.67264 16.0388 5.61384 14.8819 5.61384H12.7724V3.50433ZM7.08929 3.51577V3.50433C7.08929 2.34745 8.03049 1.40625 9.18737 1.40625H9.1988C10.3557 1.40625 11.2969 2.34745 11.2969 3.50433V5.61384H9.18737C8.03049 5.61384 7.08929 4.67264 7.08929 3.51577ZM5.15715 7.02009H9.62776V12.4347H4.18984V7.98745C4.18984 7.45406 4.62376 7.02009 5.15715 7.02009ZM4.18984 21.6264V17.1792H9.62776V22.5938H5.15715C4.62376 22.5938 4.18984 22.1598 4.18984 21.6264ZM11.034 22.5938V17.1792H12.9661V22.5938H11.034ZM18.8429 22.5938H14.3723V17.1792H19.8102V21.6264C19.8102 22.1598 19.3763 22.5938 18.8429 22.5938Z" fill="#94897A"/>
</g>
<defs>
<clipPath id="clip0_352_7189">
<rect width="24" height="24" fill="white"/>
</clipPath>
</defs>
</svg>
