<svg width="24" height="24" viewBox="0 0 24 24" fill="none" xmlns="http://www.w3.org/2000/svg">
<path d="M17.7266 14.1211H15.3241C15.2018 13.9307 15.029 13.7724 14.8167 13.6663C14.7411 13.6284 14.663 13.5991 14.5838 13.577V12C14.5838 11.9908 14.5828 11.9818 14.5825 11.9726C15.8057 11.2193 16.6772 9.94809 16.8893 8.4668H17.6485C18.8148 8.4668 19.7637 7.51791 19.7637 6.35156C19.7637 5.18522 18.8148 4.23633 17.6485 4.23633H16.8892C16.5468 1.84458 14.485 0 12 0C9.51508 0 7.45323 1.84458 7.11081 4.23633H6.35158C5.18523 4.23633 4.23634 5.18522 4.23634 6.35156C4.23634 7.51791 5.18523 8.4668 6.35158 8.4668H7.11081C7.32287 9.94809 8.19437 11.2193 9.41762 11.9726C9.41725 11.9818 9.41626 11.9908 9.41626 12V13.577C9.33705 13.599 9.259 13.6284 9.18334 13.6663C8.97114 13.7724 8.79831 13.9307 8.67597 14.1211H6.27348C4.37158 14.1211 2.82428 15.6684 2.82428 17.5703V23.2969C2.82428 23.6852 3.13909 24 3.5274 24H20.4727C20.861 24 21.1758 23.6852 21.1758 23.2969V17.5703C21.1758 15.6684 19.6285 14.1211 17.7266 14.1211ZM7.0547 15.5273H8.47267V16.7224C8.47267 17.2125 8.74501 17.6531 9.18339 17.8723C9.28122 17.9212 9.38298 17.9565 9.48629 17.9791L11.0245 22.5938H7.0547V15.5273ZM9.87892 15.0573L10.8281 15.7693L9.87892 16.4812V15.0573ZM12 16.6482L13.1801 17.5332L12 21.0734L10.8199 17.5332L12 16.6482ZM14.1211 15.0573V16.4812L13.1719 15.7693L14.1211 15.0573ZM14.5138 17.9791C14.6171 17.9565 14.7189 17.9212 14.8167 17.8723C15.2551 17.6531 15.5274 17.2125 15.5274 16.7224V15.5273H16.9454V22.5938H12.9756L14.5138 17.9791ZM18.3574 6.35156C18.3574 6.7425 18.0394 7.06055 17.6485 7.06055H16.9395V5.64258H17.6485C18.0394 5.64258 18.3574 5.96063 18.3574 6.35156ZM12 1.40625C13.7075 1.40625 15.1358 2.62383 15.4628 4.23633H13.9567C13.3702 4.23633 12.8521 3.86236 12.6674 3.30581C12.5719 3.01833 12.303 2.82422 12 2.82422C11.6971 2.82422 11.4281 3.01833 11.3327 3.30581C11.148 3.86236 10.6299 4.23633 10.0434 4.23633H8.53731C8.86422 2.62383 10.2925 1.40625 12 1.40625ZM5.64259 6.35156C5.64259 5.96063 5.96064 5.64258 6.35158 5.64258H7.06056V7.06055H6.35158C5.96064 7.06055 5.64259 6.7425 5.64259 6.35156ZM8.46681 7.76367V5.64258H10.0434C10.796 5.64258 11.4932 5.34 12 4.83244C12.5068 5.34 13.2041 5.64258 13.9566 5.64258H15.5332V7.76367C15.5332 9.71189 13.9482 11.2969 12 11.2969C10.0518 11.2969 8.46681 9.71189 8.46681 7.76367ZM13.1775 12.7031V14.0072L12 14.8904L10.8225 14.0072V12.7031H13.1775ZM4.23048 17.5703C4.23048 16.6618 4.82678 15.8902 5.64845 15.6255V22.5938H4.23048V17.5703ZM19.7695 22.5938H18.3516V15.6255C19.1732 15.8902 19.7695 16.6618 19.7695 17.5703V22.5938Z" fill="#94897A"/>
</svg>
