<svg width="24" height="24" viewBox="0 0 24 24" fill="none" xmlns="http://www.w3.org/2000/svg">
<g clip-path="url(#clip0_352_7196)">
<path d="M20.4375 0C19.6467 0 18.9161 0.262641 18.3281 0.705094V0.703125C18.3281 0.314812 18.0133 0 17.625 0H6.375C5.98669 0 5.67188 0.314812 5.67188 0.703125V0.705047C5.08388 0.262641 4.35333 0 3.5625 0C1.6192 0 0 1.57191 0 3.51562C0 5.46853 1.71867 6.70116 3.23498 7.78875C4.48819 8.68758 5.67188 9.53658 5.67188 10.5469C5.67188 13.0221 7.50858 15.0765 9.89062 15.4187V16.9688H6.375C6.05236 16.9688 5.77111 17.1884 5.69287 17.5013L4.28662 23.1263C4.23408 23.3364 4.28128 23.559 4.41455 23.7296C4.54781 23.9002 4.75223 24 4.96875 24H19.0312C19.2478 24 19.4522 23.9002 19.5855 23.7296C19.7187 23.5589 19.7659 23.3364 19.7134 23.1263L18.3071 17.5013C18.2289 17.1884 17.9476 16.9688 17.625 16.9688H14.1094V15.4187C16.4914 15.0765 18.3281 13.0221 18.3281 10.5469C18.3281 9.53658 19.5118 8.68758 20.765 7.78875C22.2813 6.70116 24 5.46853 24 3.51562C24 1.57233 22.3812 0 20.4375 0ZM4.05459 6.64603C2.69264 5.6692 1.40625 4.74656 1.40625 3.51562C1.40625 2.3722 2.39367 1.40625 3.5625 1.40625C4.72561 1.40625 5.67188 2.35252 5.67188 3.51595C5.67178 3.90366 5.35641 4.21898 4.96875 4.21898C4.58105 4.21894 4.26562 3.90347 4.26562 3.51562C4.26562 3.12731 3.95081 2.81255 3.5625 2.81255C3.17419 2.81255 2.85938 3.12741 2.85938 3.51572C2.85938 4.67873 3.80555 5.62505 4.96852 5.62519H4.96875C5.21522 5.62519 5.4518 5.58225 5.67188 5.50416V7.89881C5.18222 7.45495 4.61484 7.04789 4.05459 6.64603ZM18.1307 22.5938H5.86931L6.924 18.375H17.076L18.1307 22.5938ZM13.4062 14.0625C13.0179 14.0625 12.7031 14.3773 12.7031 14.7656V16.9688H11.2969V14.7656C11.2969 14.3773 10.9821 14.0625 10.5938 14.0625C8.65523 14.0625 7.07812 12.4854 7.07812 10.5469V1.40625H16.9219V10.5469C16.9219 12.4854 15.3448 14.0625 13.4062 14.0625ZM19.9454 6.64603C19.3852 7.04789 18.8178 7.45495 18.3281 7.89886V5.50425C18.5482 5.5823 18.7848 5.62519 19.0312 5.62519H19.0315C20.1945 5.62509 21.1406 4.67878 21.1406 3.51562C21.1406 3.12731 20.8258 2.81255 20.4375 2.81255C20.0492 2.81255 19.7344 3.12741 19.7344 3.51572C19.7344 3.90342 19.419 4.21889 19.0313 4.21894C18.6436 4.21903 18.3282 3.90366 18.3281 3.51562C18.3281 2.35252 19.2744 1.40625 20.4375 1.40625C21.6063 1.40625 22.5938 2.3722 22.5938 3.51562C22.5938 4.74656 21.3074 5.6692 19.9454 6.64603Z" fill="#94897A"/>
<path d="M8.48438 20.4844C8.48438 20.8727 8.79919 21.1875 9.1875 21.1875H14.8125C15.2008 21.1875 15.5156 20.8727 15.5156 20.4844C15.5156 20.0961 15.2008 19.7812 14.8125 19.7812H9.1875C8.79919 19.7812 8.48438 20.0961 8.48438 20.4844Z" fill="#94897A"/>
<path d="M14.776 6.16945L13.2935 5.95406L12.6305 4.61072C12.5121 4.37067 12.2677 4.21875 12 4.21875C11.7323 4.21875 11.4879 4.37067 11.3695 4.61072L10.7065 5.95406L9.22402 6.16945C8.95918 6.20794 8.7391 6.39347 8.65646 6.648C8.57372 6.90253 8.64272 7.18195 8.83439 7.3688L9.90713 8.41444L9.65386 9.89091C9.60863 10.1547 9.71705 10.4213 9.93357 10.5786C10.1501 10.7359 10.4371 10.7567 10.6741 10.6321L12 9.93502L13.326 10.6321C13.5648 10.7577 13.8517 10.7347 14.0665 10.5786C14.283 10.4213 14.3914 10.1547 14.3462 9.89091L14.0929 8.41444L15.1657 7.3688C15.3573 7.182 15.4263 6.90253 15.3436 6.648C15.2609 6.39347 15.0408 6.20794 14.776 6.16945ZM12.8467 7.66542C12.6809 7.82695 12.6053 8.05969 12.6444 8.28778L12.7193 8.72437L12.3273 8.51822C12.1224 8.41055 11.8778 8.41055 11.6729 8.51822L11.2808 8.72437L11.3557 8.28778C11.3948 8.05969 11.3192 7.82695 11.1535 7.66542L10.8362 7.35623L11.2747 7.29253C11.5037 7.25925 11.7016 7.11544 11.8041 6.90792L12.0001 6.51066L12.1962 6.90792C12.2987 7.11544 12.4966 7.2593 12.7256 7.29253L13.1641 7.35623L12.8467 7.66542Z" fill="#94897A"/>
</g>
<defs>
<clipPath id="clip0_352_7196">
<rect width="24" height="24" fill="white"/>
</clipPath>
</defs>
</svg>
