<svg width="24" height="24" viewBox="0 0 24 24" fill="none" xmlns="http://www.w3.org/2000/svg">
<g clip-path="url(#clip0_352_7157)">
<path d="M16.9223 11.4832H5.48291C5.99117 11.1898 14.978 6.0012 15.3898 5.76347C15.7259 5.56939 15.8413 5.13918 15.6471 4.80292L14.2408 2.36702C14.0466 2.03071 13.6165 1.91548 13.2802 2.10965L9.74794 4.149C10.1296 3.56165 10.4384 3.0245 10.5214 2.71486C10.8157 1.61676 10.1819 0.377369 9.02975 0.0686685C8.10304 -0.179651 7.17506 0.269734 6.70266 1.03087C6.04176 0.429733 5.04149 0.293455 4.22739 0.76342C3.40376 1.23887 3.02929 2.1781 3.22154 3.04485C2.32774 3.08568 1.52231 3.69708 1.27868 4.60626C0.977619 5.72986 1.64682 6.88886 2.77038 7.18996C3.15676 7.29347 3.99604 7.25836 4.3991 7.23717L1.10058 9.14159C0.764458 9.33568 0.649042 9.76589 0.843216 10.1022L2.15537 12.3749V23.2968C2.15537 23.6852 2.47021 24 2.85856 24H16.9223C17.3107 24 17.6255 23.6852 17.6255 23.2968V12.1865C17.6255 11.798 17.3107 11.4832 16.9223 11.4832ZM10.5936 12.8896V22.5936H9.18726V12.8896H10.5936ZM8.50264 6.49188L9.20587 7.70981L7.98753 8.41323L7.28429 7.19531L8.50264 6.49188ZM13.3744 3.67917L14.0776 4.89714L10.4238 7.00662L9.72056 5.78869L13.3744 3.67917ZM7.80446 1.98683C7.90915 1.59618 8.31029 1.33183 8.66573 1.42704C9.03978 1.52727 9.26344 1.97492 9.16303 2.35042C9.08966 2.60953 8.5498 3.44196 7.89405 4.36933C7.78989 3.23827 7.73855 2.24752 7.80446 1.98683ZM4.93058 1.98134C5.269 1.78595 5.69869 1.90568 5.89099 2.23848C6.0223 2.47367 6.22918 3.44403 6.42129 4.56341C5.54793 3.83744 4.81099 3.17306 4.67321 2.94195C4.47885 2.60535 4.59394 2.17566 4.93058 1.98134ZM3.13435 5.83145C2.75983 5.73108 2.53673 5.34475 2.6371 4.97023C2.73747 4.59576 3.12366 4.37275 3.49808 4.47293C3.75728 4.54639 4.58967 5.08625 5.51699 5.74191C4.38607 5.84607 3.39518 5.89745 3.13435 5.83145ZM6.06632 7.89845L6.76956 9.11637L3.11592 11.2258L2.41273 10.0078L6.06632 7.89845ZM3.56175 12.8896H7.78088V22.5936H3.56175V12.8896ZM16.2192 22.5936H12V12.8896H16.2192V22.5936Z" fill="black"/>
<path d="M14.1096 8.67047C13.7212 8.67047 13.4064 8.98531 13.4064 9.37366C13.4064 9.76201 13.7212 10.0769 14.1096 10.0769C16.091 10.0769 17.9837 11.0232 19.1726 12.6083C19.4044 12.9175 19.8449 12.9831 20.157 12.749C20.4677 12.516 20.5307 12.0752 20.2977 11.7645C18.8446 9.82712 16.5313 8.67047 14.1096 8.67047Z" fill="black"/>
<path d="M19.6357 3.05197C19.2512 3.10687 18.9841 3.46306 19.039 3.84751C19.1179 4.40013 18.9294 4.96572 18.5347 5.36045C18.14 5.75513 17.5744 5.94363 17.0218 5.86473C16.6374 5.80969 16.2811 6.07695 16.2262 6.46141C16.1713 6.84587 16.4385 7.20206 16.8229 7.257C17.809 7.39787 18.8215 7.06264 19.5292 6.3549C20.2352 5.64885 20.5724 4.63715 20.4312 3.64865C20.3763 3.26419 20.0198 2.99712 19.6357 3.05197Z" fill="black"/>
<path d="M22.5479 7.26408C22.9362 7.26408 23.251 6.94925 23.251 6.56089C23.251 6.17253 22.9362 5.8577 22.5479 5.8577C22.1595 5.8577 21.8447 6.17253 21.8447 6.56089C21.8447 6.94925 22.1595 7.26408 22.5479 7.26408Z" fill="black"/>
<path d="M22.5479 15.7023C22.9362 15.7023 23.251 15.3875 23.251 14.9991C23.251 14.6108 22.9362 14.296 22.5479 14.296C22.1595 14.296 21.8447 14.6108 21.8447 14.9991C21.8447 15.3875 22.1595 15.7023 22.5479 15.7023Z" fill="black"/>
<path d="M19.7351 1.63856C20.1235 1.63856 20.4383 1.32373 20.4383 0.935367C20.4383 0.547006 20.1235 0.232178 19.7351 0.232178C19.3468 0.232178 19.0319 0.547006 19.0319 0.935367C19.0319 1.32373 19.3468 1.63856 19.7351 1.63856Z" fill="black"/>
</g>
<defs>
<clipPath id="clip0_352_7157">
<rect width="24" height="24" fill="white"/>
</clipPath>
</defs>
</svg>
