<svg width="24" height="24" viewBox="0 0 24 24" fill="none" xmlns="http://www.w3.org/2000/svg">
<g clip-path="url(#clip0_352_7167)">
<path d="M23.3888 6.63805L17.3617 0.610902C16.5468 -0.20396 15.2208 -0.20396 14.406 0.610902L8.37887 6.63805C7.56397 7.45296 7.56397 8.77888 8.37887 9.59379L10.0812 11.2961H2.09001C0.937585 11.2961 0 12.2337 0 13.3861V21.9098C0 23.0622 0.937585 23.9998 2.09001 23.9998H10.6136C11.7661 23.9998 12.7036 23.0622 12.7036 21.9098V13.9186L14.406 15.6209C14.8134 16.0283 15.3486 16.2321 15.8838 16.2321C16.419 16.2321 16.9543 16.0283 17.3617 15.6209L23.3888 9.59379C24.2037 8.77888 24.2037 7.45296 23.3888 6.63805ZM11.2973 21.9098C11.2973 22.2867 10.9906 22.5935 10.6136 22.5935H2.09001C1.71302 22.5935 1.40631 22.2867 1.40631 21.9098V13.3861C1.40631 13.0091 1.71302 12.7024 2.09001 12.7024H10.6136C10.9906 12.7024 11.2973 13.0091 11.2973 13.3861V21.9098ZM22.3945 8.59939L16.3673 14.6265C16.2382 14.7556 16.0665 14.8267 15.8839 14.8267C15.7013 14.8267 15.5295 14.7556 15.4004 14.6265L9.37327 8.59939C9.24413 8.47024 9.17306 8.29858 9.17306 8.11594C9.17306 7.93331 9.24418 7.7616 9.37327 7.6325L15.4004 1.60535C15.5337 1.47203 15.7087 1.40542 15.8838 1.40542C16.0589 1.40542 16.234 1.47208 16.3673 1.60535L22.3944 7.63246C22.5235 7.7616 22.5946 7.93326 22.5946 8.1159C22.5946 8.29853 22.5236 8.47024 22.3945 8.59939Z" fill="#94897A"/>
<path d="M3.52748 14.1207C3.15968 14.1207 2.80731 14.4441 2.82432 14.8238C2.84139 15.2048 3.13329 15.527 3.52748 15.527C3.89527 15.527 4.24765 15.2036 4.23063 14.8238C4.21357 14.4429 3.92166 14.1207 3.52748 14.1207Z" fill="#94897A"/>
<path d="M6.35182 14.1207C5.98402 14.1207 5.63165 14.4441 5.64866 14.8238C5.66573 15.2048 5.95763 15.527 6.35182 15.527C6.71961 15.527 7.07199 15.2036 7.05497 14.8238C7.03791 14.4429 6.74601 14.1207 6.35182 14.1207Z" fill="#94897A"/>
<path d="M9.17616 14.1207C8.80836 14.1207 8.45599 14.4441 8.473 14.8238C8.49007 15.2048 8.78197 15.527 9.17616 15.527C9.54395 15.527 9.89633 15.2036 9.87931 14.8238C9.86225 14.4429 9.57035 14.1207 9.17616 14.1207Z" fill="#94897A"/>
<path d="M3.52748 16.945C3.15968 16.945 2.80731 17.2684 2.82432 17.6482C2.84139 18.0291 3.13329 18.3513 3.52748 18.3513C3.89527 18.3513 4.24765 18.0279 4.23063 17.6482C4.21357 17.2672 3.92166 16.945 3.52748 16.945Z" fill="#94897A"/>
<path d="M6.35182 16.945C5.98402 16.945 5.63165 17.2684 5.64866 17.6482C5.66573 18.0291 5.95763 18.3513 6.35182 18.3513C6.71961 18.3513 7.07199 18.0279 7.05497 17.6482C7.03791 17.2672 6.74601 16.945 6.35182 16.945Z" fill="#94897A"/>
<path d="M9.17616 16.945C8.80836 16.945 8.45599 17.2684 8.473 17.6482C8.49007 18.0291 8.78197 18.3513 9.17616 18.3513C9.54395 18.3513 9.89633 18.0279 9.87931 17.6482C9.86225 17.2672 9.57035 16.945 9.17616 16.945Z" fill="#94897A"/>
<path d="M3.52748 19.7693C3.15968 19.7693 2.80731 20.0928 2.82432 20.4725C2.84139 20.8535 3.13329 21.1757 3.52748 21.1757C3.89527 21.1757 4.24765 20.8523 4.23063 20.4725C4.21357 20.0915 3.92166 19.7693 3.52748 19.7693Z" fill="#94897A"/>
<path d="M6.35182 19.7693C5.98402 19.7693 5.63165 20.0928 5.64866 20.4725C5.66573 20.8535 5.95763 21.1757 6.35182 21.1757C6.71961 21.1757 7.07199 20.8523 7.05497 20.4725C7.03791 20.0915 6.74601 19.7693 6.35182 19.7693Z" fill="#94897A"/>
<path d="M9.17616 19.7693C8.80836 19.7693 8.45599 20.0928 8.473 20.4725C8.49007 20.8535 8.78197 21.1757 9.17616 21.1757C9.54395 21.1757 9.89633 20.8523 9.87931 20.4725C9.86225 20.0915 9.57035 19.7693 9.17616 19.7693Z" fill="#94897A"/>
<path d="M15.8839 3.41879C15.5161 3.41879 15.1637 3.7422 15.1807 4.12195C15.1978 4.50292 15.4897 4.8251 15.8839 4.8251C16.2517 4.8251 16.604 4.5017 16.587 4.12195C16.57 3.74098 16.278 3.41879 15.8839 3.41879Z" fill="#94897A"/>
<path d="M15.8839 7.41296C15.5161 7.41296 15.1637 7.73637 15.1807 8.11612C15.1978 8.49709 15.4897 8.81927 15.8839 8.81927C16.2517 8.81927 16.604 8.49587 16.587 8.11612C16.57 7.73515 16.278 7.41296 15.8839 7.41296Z" fill="#94897A"/>
<path d="M15.8839 11.4072C15.5161 11.4072 15.1637 11.7306 15.1807 12.1104C15.1978 12.4913 15.4897 12.8135 15.8839 12.8135C16.2517 12.8135 16.604 12.4901 16.587 12.1104C16.57 11.7294 16.278 11.4072 15.8839 11.4072Z" fill="#94897A"/>
</g>
<defs>
<clipPath id="clip0_352_7167">
<rect width="24" height="24" fill="white"/>
</clipPath>
</defs>
</svg>
