<svg width="24" height="24" viewBox="0 0 24 24" fill="none" xmlns="http://www.w3.org/2000/svg">
<g clip-path="url(#clip0_352_7151)">
<path d="M20.4853 3.51469C18.2188 1.24823 15.2053 0 12 0C8.79469 0 5.78123 1.24823 3.51469 3.51469C1.24823 5.78123 0 8.79469 0 12C0 15.2053 1.24823 18.2188 3.51469 20.4853C5.78123 22.7518 8.79469 24 12 24C15.2053 24 18.2188 22.7518 20.4853 20.4853C22.7518 18.2188 24 15.2053 24 12C24 8.79469 22.7518 5.78123 20.4853 3.51469ZM12 22.5938C6.15858 22.5938 1.40625 17.8414 1.40625 12C1.40625 6.15858 6.15858 1.40625 12 1.40625C17.8414 1.40625 22.5938 6.15858 22.5938 12C22.5938 17.8414 17.8414 22.5938 12 22.5938Z" fill="black"/>
<path d="M18.543 5.57391C18.526 5.55244 18.4475 5.47397 18.4261 5.45705C16.7694 3.82973 14.5001 2.82422 12 2.82422C9.49988 2.82422 7.23056 3.82973 5.57391 5.45705C5.55244 5.47402 5.47397 5.55248 5.45705 5.57391C3.82973 7.23052 2.82422 9.49988 2.82422 12C2.82422 14.5001 3.82973 16.7695 5.45705 18.4261C5.47402 18.4476 5.55248 18.526 5.57391 18.543C7.23052 20.1703 9.49988 21.1758 12 21.1758C14.5001 21.1758 16.7694 20.1703 18.4261 18.543C18.4476 18.526 18.526 18.4475 18.543 18.4261C20.1703 16.7695 21.1758 14.5001 21.1758 12C21.1758 9.49988 20.1703 7.23052 18.543 5.57391ZM19.7374 11.2969H14.5402C14.4904 11.1238 14.4201 10.9185 14.3214 10.6729L17.9658 7.02848C18.9501 8.20758 19.5918 9.6817 19.7374 11.2969ZM12.7031 4.26262C14.3183 4.40822 15.7924 5.04989 16.9715 6.03412L13.6871 9.31856C13.6583 9.26311 13.6287 9.20662 13.5983 9.14892C13.2346 8.4607 12.8755 7.85273 12.7031 7.56661V4.26262H12.7031ZM11.2969 4.26262V7.56661C11.1245 7.85278 10.7653 8.4607 10.4018 9.14887C10.3712 9.20658 10.3417 9.26311 10.3129 9.31856L7.02848 6.03412C8.20758 5.04989 9.6817 4.40822 11.2969 4.26262ZM6.03412 7.02848L9.67856 10.6729C9.57994 10.9185 9.50962 11.1238 9.45984 11.2969H4.26262C4.40822 9.6817 5.04989 8.20758 6.03412 7.02848ZM4.26262 12.7031H9.43898C9.49823 12.9186 9.58397 13.1231 9.69253 13.3131L6.03412 16.9715C5.04989 15.7924 4.40822 14.3183 4.26262 12.7031ZM11.2969 19.7374C9.6817 19.5918 8.20758 18.9501 7.02848 17.9659L10.6869 14.3075C10.8769 14.416 11.0814 14.5018 11.2969 14.561V19.7374ZM10.75 12C10.75 11.5797 11.3267 10.3509 12.0001 9.14991C12.6734 10.3505 13.25 11.5792 13.25 12C13.25 12.6892 12.6892 13.25 12 13.25C11.3108 13.25 10.75 12.6892 10.75 12ZM12.7031 19.7374V14.5611C12.9186 14.5018 13.1231 14.4161 13.3132 14.3075L16.9715 17.9659C15.7924 18.9501 14.3183 19.5918 12.7031 19.7374ZM17.9659 16.9715L14.3075 13.3132C14.4161 13.1231 14.5019 12.9187 14.5611 12.7031H19.7374C19.5918 14.3183 18.9501 15.7924 17.9659 16.9715Z" fill="black"/>
</g>
<defs>
<clipPath id="clip0_352_7151">
<rect width="24" height="24" fill="white"/>
</clipPath>
</defs>
</svg>
